<svg width="75" height="75" viewBox="0 0 75 75" fill="none" xmlns="http://www.w3.org/2000/svg">
<path d="M17.7588 75C17.2007 75 16.7017 74.5791 16.5859 73.9688C16.4537 73.271 16.8726 72.5909 17.5207 72.4487C21.018 71.683 24.387 70.0774 27.263 67.8061L61.6073 40.6894C62.1408 40.2673 62.8902 40.3912 63.2821 40.9656C63.6735 41.5394 63.5589 42.346 63.0253 42.767L28.681 69.8836C25.5272 72.3738 21.8335 74.1343 17.9993 74.9742C17.9186 74.9918 17.8378 75 17.7588 75Z" fill="black"/>
<path d="M23.1807 65.5241C22.6226 65.5241 22.1236 65.1031 22.0078 64.4928C21.8756 63.7951 22.2944 63.115 22.9426 62.9728C26.4398 62.2071 29.8089 60.6014 32.6848 58.3301L36.1241 55.6152C36.6576 55.1931 37.407 55.3177 37.799 55.8915C38.1904 56.4653 38.0757 57.2719 37.5422 57.6928L34.1029 60.4076C30.9491 62.8979 27.2553 64.6583 23.4212 65.4983C23.3404 65.5159 23.2597 65.5241 23.1807 65.5241Z" fill="black"/>
<path d="M47.6588 49.3953C47.2903 49.3953 46.9264 49.2134 46.6918 48.8693C46.3004 48.2955 46.4151 47.4889 46.9486 47.068L73.0928 26.4255C73.6258 26.0027 74.3757 26.1279 74.7677 26.7017C75.1591 27.2755 75.0444 28.0821 74.5109 28.503L48.3667 49.1455C48.1532 49.3141 47.9045 49.3953 47.6588 49.3953Z" fill="black"/>
<path d="M6.93075 14.9078C10.7585 14.9078 13.8615 11.5706 13.8615 7.45391C13.8615 3.33723 10.7585 0 6.93075 0C3.103 0 0 3.33723 0 7.45391C0 11.5706 3.103 14.9078 6.93075 14.9078Z" fill="black"/>
<path d="M25.2436 27.8337L37.7297 17.9196L35.3755 16.4966L22.9133 26.3917L25.2436 27.8337Z" fill="black"/>
<path d="M46.4431 38.1882L38.8809 36.7515L44.6348 29.2995C44.7729 29.1194 44.8868 28.9269 44.9831 28.7277C46.1685 26.6181 46.0633 23.4315 44.3124 21.8984L41.1652 19.9961L28.644 29.9381L34.0169 33.263L31.728 36.2274C31.0108 37.1625 30.8741 38.3994 31.2521 39.4397C31.2901 40.0341 31.4771 40.627 31.8315 41.1431L39.6971 52.5197C40.6704 53.9371 42.519 54.261 43.8052 53.2395C45.0914 52.218 45.3475 50.2225 44.3743 48.8051L40.6651 43.4402L45.3829 44.3366C48.0281 44.8641 49.5985 43.6505 49.89 41.9597C50.1816 40.2689 49.0882 38.7158 46.4431 38.1882Z" fill="black"/>
<path d="M21.3383 25.417L21.7794 25.69L34.23 15.8042L28.2917 12.215L39.1217 3.66399C39.6552 3.24307 39.7699 2.43648 39.3785 1.86267C38.9865 1.28824 38.2371 1.16429 37.7036 1.58647L25.9982 10.8287L24.0799 9.66919C22.1662 7.99363 20.4576 9.23907 19.6141 9.65267L14.022 15.0535C12.7088 16.7883 12.6922 18.8134 13.8606 20.412L11.5594 22.2289C11.5553 22.2321 11.5537 22.2373 11.5497 22.2405L11.5203 22.2484C10.3545 22.3654 9.48966 23.4868 9.5984 24.7405C9.74824 26.4695 11.1862 27.7522 12.7938 27.591L21.3383 25.417Z" fill="black"/>
</svg>
