<svg width="70" height="70" viewBox="0 0 70 70" fill="none" xmlns="http://www.w3.org/2000/svg">
<path fill-rule="evenodd" clip-rule="evenodd" d="M19.9103 31.9482C19.0761 31.9482 18.2419 31.9482 17.4077 31.5775C16.2027 31.1142 14.7196 30.2803 13.7 29.4463C13.4219 29.1683 12.5877 28.1491 12.5877 27.6857C12.8658 27.0371 12.3096 23.8867 11.8462 23.3307C11.7535 22.8674 11.29 20.9215 11.6608 18.6976C12.0316 16.3811 12.9585 12.7673 13.7927 11.0994C14.6269 9.5242 15.4611 8.41227 15.4611 8.41227C15.0904 7.393 14.8123 6.28107 14.5342 5.2618C14.3488 5.2618 14.2562 5.2618 14.0708 5.2618C13.8854 4.7985 13.7927 4.42785 13.9781 3.87189C14.1635 3.77923 14.3488 3.77923 14.5342 3.68657C14.5342 3.68657 16.2027 0.350771 18.52 0.0727885C21.5788 -0.390516 24.4522 1.4627 27.1402 2.66729C26.8622 3.22326 26.3987 3.77923 25.9353 4.24253C25.4718 4.33519 25.0083 4.42785 24.5449 4.52051C24.7303 5.2618 24.823 5.72511 24.7303 6.74438H26.0279C26.5841 7.94897 27.0476 9.80219 25.5645 10.6361C24.1741 10.4508 22.7838 10.2655 21.3934 10.0802C21.3934 10.0802 21.9495 12.304 21.8568 13.0453C20.5592 13.8793 20.7445 15.0839 21.208 16.2885C23.0618 16.7518 25.0083 17.3077 26.8622 17.8637C27.9745 17.6784 29.0868 17.5857 30.1991 17.493L31.126 18.049L32.0529 17.5857L33.9994 17.6784L34.6482 18.327L35.4825 18.1417L38.0778 21.0142L38.1705 21.8481L41.4147 24.6279C46.5127 21.2921 50.4985 19.9949 57.2649 22.4041L56.1526 22.96C56.1526 22.96 52.1669 22.4041 48.3666 23.516C46.2347 24.1646 44.6589 25.3692 43.5466 26.3885L49.6642 31.4848C49.8496 31.1142 50.1277 30.8362 50.4985 30.6509C51.0546 31.2069 53.1865 30.1876 52.7231 29.1683C53.1865 28.7977 53.5573 28.6124 54.0207 28.6124C54.2988 29.261 56.7088 29.0757 56.7088 27.9637C57.1722 27.7784 57.6357 27.7784 58.0065 27.8711C58.0991 28.6124 60.4164 29.261 60.7872 28.1491C61.2507 28.1491 61.7141 28.2417 62.0849 28.5197C61.8995 29.261 63.846 30.6509 64.4948 29.7243C65.051 29.9096 65.4218 30.1876 65.6071 30.5582C65.2364 31.1142 66.6267 33.1527 67.5537 32.5041C67.9244 32.7821 68.2025 33.2454 68.2952 33.616C67.739 34.0794 68.2952 36.3959 69.4075 36.1179C69.6856 36.5812 69.7783 37.0445 69.7783 37.5078C69.0367 37.6005 68.8513 40.1023 69.9636 40.195C70.0563 40.6583 69.9636 41.1216 69.7783 41.5849C69.0367 41.4922 68.0171 43.7161 69.0367 44.1794C68.944 44.6427 68.7586 45.106 68.4806 45.384C67.739 45.106 66.0706 46.7739 66.8121 47.6079C66.5341 48.0712 66.256 48.3491 65.8852 48.6271C65.3291 48.0712 63.1045 49.0904 63.5679 50.1097C63.1972 50.3877 62.7337 50.573 62.3629 50.6657C61.9922 50.017 59.5822 50.2024 59.6749 51.3143C59.2114 51.4996 58.748 51.4996 58.2845 51.4069C58.2845 50.6657 55.8746 50.017 55.5965 51.129C55.0403 51.129 54.6696 51.0363 54.2988 50.7583C54.4842 50.017 52.445 48.6271 51.7961 49.5537C51.3327 49.3684 50.9619 49.0904 50.6838 48.7198C51.1473 48.1638 49.7569 46.1253 48.83 46.7739C48.3666 46.4033 48.1812 46.0326 47.9958 45.662C48.6446 45.1987 47.9958 42.8821 46.8835 43.1601C46.6981 42.6968 46.5127 42.2335 46.6054 41.7702C47.2543 41.5849 47.5323 39.1757 46.42 39.083C46.3273 38.6197 46.3273 38.1564 46.5127 37.6931C47.2543 37.7858 48.2739 35.5619 47.2543 35.0986C47.347 34.5427 47.625 34.172 47.9031 33.894C48.6446 34.0794 48.7373 33.616 48.9227 33.2454L42.3416 27.7784C41.6928 28.6124 40.7659 32.6894 40.8586 33.5234C41.1366 35.006 41.4147 37.1372 41.4147 37.1372L40.7659 38.4344L39.6536 35.2839L39.0047 35.006C38.8194 38.8051 40.3024 38.4344 41.6001 40.473C42.0635 41.2142 41.322 41.9555 41.322 41.9555L39.0047 41.4922C39.0047 41.4922 38.3559 43.6234 36.8728 44.7354C35.3898 45.8473 28.9941 47.8858 26.3987 48.9978L24.823 50.6657C25.0083 50.7583 25.1937 51.3143 25.8426 51.0363C26.306 51.3143 26.4914 51.7776 26.6768 52.1482C26.0279 52.6115 26.6768 54.9281 27.7891 54.6501C27.9745 55.1134 28.0672 55.5767 28.0672 55.9473C27.3256 56.2253 27.2329 58.6345 28.2525 58.7272C28.3452 59.1905 28.3452 59.6538 28.1599 60.1171C27.4183 60.0244 26.3987 62.1556 27.4183 62.7116C27.3256 63.1749 27.0476 63.6382 26.7695 63.9162C26.1206 63.6382 24.3595 65.3061 25.1937 66.14C24.9157 66.6033 24.5449 66.8813 24.1741 67.0666C23.4326 66.3254 21.5788 67.9933 21.9495 68.6419C21.4861 68.9199 21.1153 69.1052 20.6519 69.1978C20.3738 68.5492 17.9638 68.7345 17.9638 69.8465C17.5004 70.0318 17.0369 70.0318 16.6661 69.9391C16.5734 69.1978 14.2562 68.5492 13.8854 69.6612C13.4219 69.6612 12.9585 69.4758 12.5877 69.2905C12.7731 68.5492 10.8266 67.1593 10.1777 68.0859C9.62159 67.9006 9.25082 67.6226 8.97275 67.252C9.4362 66.696 8.04584 64.6575 7.11892 65.3061C6.74816 64.9354 6.47008 64.5648 6.37739 64.1942C6.93354 63.7309 6.37739 61.4143 5.2651 61.6923C4.98702 61.229 4.89433 60.7657 4.89433 60.3024C5.63586 60.1171 5.82124 57.7079 4.70895 57.6152C4.61626 57.0593 4.70895 56.596 4.89433 56.2253C5.63586 56.318 6.65547 54.0941 5.63586 53.6308C5.72855 53.0748 5.91393 52.7042 6.19201 52.3336C6.93354 52.7042 8.60198 50.9436 7.86045 50.2024C8.13853 49.7391 8.4166 49.3684 8.78737 49.1831C9.34351 49.7391 11.5681 48.7198 11.1046 47.7005C11.4754 47.3299 11.9389 47.1445 12.3096 47.1445C12.6804 47.7932 15.0904 47.6079 14.9977 46.4959C15.4611 46.3106 15.9246 46.3106 16.3881 46.4033C16.3881 47.1445 18.798 47.7005 19.0761 46.6812C19.6323 46.6812 20.003 46.7739 20.3738 47.0519C20.1884 47.7932 22.2276 49.1831 22.8764 48.2565C23.3399 48.4418 23.7107 48.7198 23.9887 49.0904L24.7303 48.3491C24.7303 48.3491 23.618 47.5152 24.0814 46.6812C24.4522 45.94 24.9157 45.384 24.9157 45.384L24.3595 43.1601L20.5592 41.9555C20.5592 41.9555 19.2615 43.2528 18.0565 43.2528C17.6857 43.2528 16.9442 43.1601 16.2027 42.8821L21.1153 41.3069L21.4861 40.2876L24.6376 41.4922L27.511 44.7354L31.404 43.1601C31.0333 42.3262 30.6625 41.4922 30.1991 40.6583C29.6429 40.9363 28.9941 41.2142 28.4379 41.4922L26.306 38.9904L20.003 36.5812L10.9193 39.639C10.7339 39.1757 9.80697 38.1564 7.76776 38.6197C5.2651 39.1757 1.46475 40.1023 1.46475 40.1023C1.46475 40.1023 -0.389075 40.195 0.0743819 39.8243C0.445147 39.4537 5.45048 36.9518 10.3631 35.6546C10.3631 35.6546 9.71428 35.006 10.085 34.6353C10.3631 34.2647 15.9246 33.7087 18.8907 32.4115L19.9103 31.9482ZM29.7356 20.4582C29.6429 20.6435 29.5502 20.8288 29.4575 20.7362C29.3648 20.7362 29.2721 20.7362 29.1795 20.7362C28.8087 20.7362 28.4379 20.6435 28.3452 20.3655C27.7891 20.2729 27.0476 20.1802 26.8622 20.9215C26.5841 20.9215 26.2133 20.8288 25.8426 20.8288C25.7499 20.6435 25.5645 20.5509 25.4718 20.3655C25.4718 20.3655 23.0618 21.1068 22.3203 21.1995C21.6715 21.2921 19.6323 20.9215 19.6323 20.9215C19.6323 21.7554 19.6323 22.5894 19.6323 23.3307C20.9299 23.516 21.9495 24.1646 22.9691 24.9059C24.2668 25.6472 25.7499 25.4619 27.2329 25.3692C27.2329 25.3692 27.511 25.7399 27.9745 26.0179C28.8087 25.3692 29.6429 24.8133 30.2918 24.2573C32.8871 22.4041 32.9798 23.6087 35.6678 24.2573L35.9459 23.238L34.1848 22.8674L32.4237 21.3848V20.5509L33.4433 19.7169L33.0725 19.3463L32.0529 19.2536L29.7356 20.4582ZM58.5626 36.1179C59.0261 36.2106 59.4895 36.3959 59.953 36.5812C60.8799 35.2839 61.436 33.894 62.8264 32.6894C58.4699 29.8169 58.9334 32.5041 58.5626 36.1179ZM58.1918 36.1179C58.3772 34.5427 58.1918 32.9674 58.748 31.2995C53.5573 30.9289 55.3184 33.1527 56.8015 36.3959C57.2649 36.2106 57.7284 36.1179 58.1918 36.1179ZM60.231 36.7665C60.6018 37.0445 60.9726 37.4151 61.158 37.8785C62.641 37.2298 63.9387 36.3032 65.6071 35.9326C63.2899 31.2069 62.3629 33.8014 60.231 36.7665ZM61.3433 38.1564V38.2491C61.5287 38.7124 61.7141 39.1757 61.7141 39.639C63.2899 39.7317 64.7729 39.5463 66.5341 40.1023C66.8121 34.9133 64.6802 36.6739 61.3433 38.1564ZM61.6214 39.917C61.6214 40.473 61.436 40.9363 61.2507 41.3996C62.5483 42.2335 63.9387 42.8821 65.1437 44.2721C68.0171 39.8243 65.3291 40.2876 61.6214 39.917ZM61.0653 41.6775C60.7872 42.0482 60.4164 42.4188 59.953 42.6968C60.6018 43.9941 61.7141 45.662 61.8995 47.1445C66.6267 44.7354 64.4022 43.9941 61.0653 41.6775ZM59.5822 42.7895C59.1188 43.0675 58.6553 43.1601 58.1918 43.1601C58.0991 44.2721 58.0991 47.0519 57.6357 47.9785C63.0118 48.3491 61.3433 46.5886 59.5822 42.7895ZM57.8211 43.1601C57.2649 43.0675 56.8015 42.8821 56.338 42.6042C55.6892 43.6234 54.4842 45.94 53.4646 46.5886C58.0065 49.5537 57.4503 47.2372 57.8211 43.1601ZM56.0599 42.4188C55.6892 42.1409 55.3184 41.7702 55.133 41.3069C53.8353 41.9555 52.0742 43.0675 50.6838 43.2528C53.0011 48.1638 53.7427 45.8473 56.0599 42.4188ZM54.9476 41.0289C54.7623 40.5656 54.6696 40.0097 54.6696 39.5463C53.0938 39.4537 51.5181 39.5463 49.8496 38.9904C49.3862 44.3647 51.24 42.7895 54.9476 41.0289ZM54.6696 39.1757C54.7623 38.8977 54.855 38.5271 54.9476 38.2491L51.5181 35.3766C51.1473 35.1913 50.9619 35.3766 50.6838 35.8399C48.7373 39.4537 50.8692 38.8977 54.6696 39.1757ZM56.5234 36.5812C55.7819 35.0986 54.855 33.894 54.4842 32.1335C53.928 32.4115 51.8888 33.3381 52.6304 33.9867L56.0599 36.8592C56.2453 36.7665 56.338 36.6739 56.5234 36.5812ZM16.8515 54.6501C17.315 54.7427 17.7784 54.8354 18.2419 55.1134C19.1688 53.8161 19.7249 52.3336 21.1153 51.2216C16.7588 48.3491 17.1296 51.0363 16.8515 54.6501ZM16.4807 54.6501C16.5734 53.0748 16.4807 51.4996 17.0369 49.8317C11.7535 49.4611 13.5146 51.6849 15.0904 54.9281C15.4611 54.7427 16.0173 54.6501 16.4807 54.6501ZM19.2615 54.1868L21.6715 51.5923C21.3934 51.3143 19.4469 53.9088 19.2615 54.1868ZM19.7249 56.6886C19.9103 57.1519 20.003 57.7079 20.003 58.1712C21.5788 58.2639 23.4326 58.1712 24.823 58.7272C25.1937 53.4455 23.3399 55.0207 19.7249 56.6886ZM19.5396 56.4106C20.9299 55.6694 22.2276 54.8354 23.9887 54.4648C23.7107 53.8161 23.3399 53.2602 22.8764 52.7042L19.4469 56.318L19.5396 56.4106ZM20.003 58.5418C19.9103 59.0051 19.7249 59.4685 19.5396 59.9318C20.5592 60.673 22.6911 61.785 23.4326 62.8042C26.028 58.9125 24.1741 58.9125 20.003 58.5418ZM19.3542 60.2097C19.0761 60.5804 18.6126 60.951 18.1492 61.229C18.8907 62.6189 19.8176 63.9162 20.1884 65.6767C24.3595 63.6382 22.7838 62.6189 19.3542 60.2097ZM17.8711 61.4143C17.4077 61.5997 16.9442 61.6923 16.3881 61.6923C16.2954 63.2675 16.4807 64.7501 15.9246 66.5107C20.8372 66.8813 19.4469 64.6575 17.8711 61.4143ZM16.11 61.5997C15.5538 61.5997 15.0904 61.4143 14.6269 61.1363C13.7927 62.4336 13.1439 63.9162 11.8462 65.1208C15.6465 67.6226 15.7392 65.7694 16.11 61.5997ZM14.3488 60.951C13.9781 60.673 13.7 60.3024 13.4219 59.8391C11.9389 60.5804 10.7339 61.4143 8.97275 61.785C11.29 66.6033 12.2169 64.1015 14.3488 60.951ZM13.2365 59.5611C13.0512 59.0978 12.9585 58.5418 12.9585 58.0785C11.3827 57.9859 9.89966 58.1712 8.13853 57.6152C7.76776 62.8042 9.99235 61.0437 13.2365 59.5611ZM13.0512 57.8006C13.0512 57.2446 13.2365 56.7813 13.5146 56.4106C12.1243 55.484 10.7339 54.8354 9.5289 53.5382C6.65547 57.8932 9.43621 57.4299 13.0512 57.8006ZM13.7 56.1327C13.9781 55.6694 14.3488 55.3914 14.7196 55.1134C14.0708 53.6308 13.1439 52.4262 12.7731 50.6657C8.13853 52.9822 10.7339 54.0015 13.7 56.1327ZM8.04584 41.2142L20.003 37.2298L25.9353 39.4537L28.2525 42.2335L29.921 41.4922L30.5698 42.8821L27.6964 44.0867L25.0083 40.9363L21.1153 39.5463L20.6519 40.8436L9.25082 44.55C9.25082 44.55 7.397 43.4381 8.04584 41.2142ZM36.9655 24.6279L39.1901 25.0912L37.7071 23.8866L36.9655 24.6279ZM51.4254 32.9674L51.7961 33.2454C52.6304 32.5041 53.4646 31.8555 54.4842 31.3922C59.0261 29.4463 64.4022 31.4848 66.3487 36.0252C68.3879 40.473 66.3487 45.8473 61.8068 47.8858C57.2649 49.8317 51.9815 47.7932 49.9423 43.2528C48.6446 40.3803 49.0154 37.1372 50.6838 34.728L50.3131 34.3573C48.5519 36.9518 48.1812 40.3803 49.5715 43.4381C51.6108 48.2565 57.2649 50.3877 61.9922 48.2565C66.8121 46.1253 68.944 40.5656 66.8121 35.8399C64.6802 31.0215 59.1188 28.8903 54.2988 31.0215C53.1865 31.4848 52.2596 32.1335 51.4254 32.9674ZM23.618 51.9629L23.3399 52.3336C23.8961 52.9822 24.3595 53.7235 24.7303 54.4648C26.6768 59.0051 24.6376 64.3795 20.1884 66.3254C15.6465 68.3639 10.2704 66.3254 8.32391 61.785C6.2847 57.2446 8.32391 51.9629 12.8658 49.9244C16.0173 48.5345 19.5396 49.0904 22.1349 51.129L22.413 50.7583C19.7249 48.6271 16.0173 48.0712 12.6804 49.5537C7.86045 51.6849 5.72855 57.2446 7.86045 61.9703C9.99235 66.7887 15.5538 68.9199 20.3738 66.7887C25.101 64.6575 27.2329 59.0978 25.101 54.2794C24.7303 53.4455 24.2668 52.6115 23.618 51.9629ZM35.6678 39.083C37.3363 39.4537 38.1705 41.8629 36.5021 43.0675C37.7071 41.7702 36.9655 39.8243 35.5752 39.4537C33.9994 39.083 32.8871 40.7509 33.2579 42.2335C33.1652 42.2335 33.1652 42.2335 33.0725 42.2335C32.331 40.473 33.9067 38.7124 35.6678 39.083Z" fill="black"/>
</svg>
