<svg width="77" height="67" viewBox="0 0 77 67" fill="none" xmlns="http://www.w3.org/2000/svg">
<path fill-rule="evenodd" clip-rule="evenodd" d="M74.4794 30.1648C71.7489 31.3842 70.4879 32.6048 69.0161 36.3736C68.5435 36.8734 68.0723 37.3716 68.0723 37.3716C68.0723 37.3716 67.6525 36.4284 67.0211 36.5952C66.3915 36.7617 65.498 37.8146 65.3403 38.1479C65.1833 38.4804 65.5509 39.0352 65.5509 39.0352L60.4031 43.0263C60.4031 43.0263 59.0387 42.5274 57.3584 43.0263C55.6768 43.5245 53.8909 44.9124 53.8909 44.9124V46.3537C53.8909 46.3537 51.2117 41.4177 50.215 39.6993C49.2151 37.9806 47.3771 37.2593 44.9623 36.9276C42.546 36.5952 40.1302 37.5923 40.1302 37.5923L48.0067 48.6809C48.0067 48.6809 48.0604 47.9612 48.428 46.6859C48.7959 45.4105 48.9529 44.245 48.9529 44.245L49.4792 44.3576C49.4792 44.3576 50.6337 46.4093 50.9487 47.0167C51.2644 47.6274 51.4735 47.8498 50.9487 48.3488C50.4238 48.8477 49.3742 49.7901 49.3742 49.7901C49.3742 49.7901 49.0277 49.4319 47.6916 49.5685C46.6301 47.973 36.5564 33.2678 36.5564 33.2678C36.5564 33.2678 37.0748 32.5647 36.2414 31.7167C35.4081 30.8687 34.7705 31.1619 34.7705 31.1619L32.6688 28.3893C32.6688 28.3893 32.9088 27.8638 33.72 27.8345C34.5297 27.8052 38.2863 27.2355 39.3917 27.0589C40.4981 26.8816 40.9715 26.0361 40.6528 24.8413C40.3339 23.6467 37.9711 17.6271 37.2908 16.3025C36.6113 14.977 35.4009 13.9734 35.4009 13.9734L38.1314 10.5362C38.1314 10.5362 41.7775 9.59742 44.1188 7.43072C46.4611 5.26562 46.9891 4.0543 46.5351 3.21722C46.0807 2.3809 43.8218 0.0723823 42.7534 0.000809333C42.0305 -0.0474597 39.9186 2.07177 38.8666 4.10372C37.8146 6.13567 37.2898 9.64844 37.2898 9.64844L34.3486 12.9747C34.3486 12.9747 33.2871 11.8292 32.4576 12.4198C31.6273 13.0121 31.5058 14.2901 31.5123 14.7482C31.5187 15.2073 32.0379 15.6354 32.0379 15.6354L15.7573 34.4888C15.7573 34.4888 14.8995 33.2826 14.2863 34.1555C13.6731 35.0295 12.708 35.6491 13.6557 36.928C12.9613 37.9761 13.5506 38.1483 13.5506 38.1483L14.3911 38.2584L14.8117 37.7036L15.9669 38.4816C15.9669 38.4816 18.7582 38.7107 22.0593 40.3652C25.3604 42.0204 31.6188 44.9136 31.6188 44.9136C31.6188 44.9136 30.795 41.1199 30.8833 37.151C30.9724 33.1799 31.3038 28.6129 31.3038 28.6129C31.3038 28.6129 31.4664 28.7886 32.0393 29.4986C32.7253 30.3492 33.8252 31.717 33.8252 31.717C33.8252 31.717 32.5136 37.5359 32.5641 40.587C32.6147 43.6401 32.5901 45.1646 34.2442 44.6906C35.8999 44.2174 39.4969 42.3632 39.4969 42.3632L39.9166 42.6948C39.9166 42.6948 39.1884 47.7931 39.0768 48.4603C39.5662 49.2434 41.1777 49.7915 41.1777 49.7915L48.4262 52.564C48.4262 52.564 49.0101 53.4389 48.5312 53.4505C46.5214 52.884 39.8221 50.3482 32.2487 46.2446C24.676 42.1369 15.227 36.9582 6.51124 39.9228C-2.20317 42.887 -0.296669 51.2328 4.41086 55.3356C4.41086 55.3356 6.88011 54.2276 12.1848 54.2276C17.4904 54.2276 25.9993 56.3343 36.1361 59.2166C46.273 62.1006 52.6811 63.4868 54.414 63.6525C54.5198 64.373 54.7289 64.8719 54.7289 64.8719C54.7289 64.8719 42.4389 62.2654 32.984 59.5487C23.5304 56.8321 15.7045 55.1136 9.03336 55.8892C2.36291 56.6667 0.682632 58.5519 0 59.3274C2.20566 58.1071 6.19722 56.1119 14.8121 57.2215C23.4259 58.3303 33.7719 61.4358 47.6915 64.7634C61.6098 68.0888 64.4416 66.8368 66.3909 66.4254C67.4413 66.2038 67.9669 65.5381 67.9669 65.5381C67.9669 65.5381 65.8653 66.3145 63.0282 66.0937C62.2413 64.2085 60.2448 61.7677 56.831 60.3275C53.4171 58.8854 54.2574 58.8854 53.469 57.6667C52.6814 56.4453 49.6873 52.2334 49.6873 52.2334C49.6873 52.2334 50.6856 51.7337 51.9988 50.9014C53.312 50.0699 53.9946 49.4612 53.9946 49.4612L54.5194 53.6755C54.5194 53.6755 59.3516 54.5077 62.2921 53.8971C62.345 50.6815 62.5035 47.1326 62.5035 47.1326C62.5035 47.1326 66.0746 48.463 67.2306 48.6838C68.3851 48.9069 69.0694 48.2423 69.0158 46.9111C68.9644 45.5791 68.9644 41.0898 68.9107 40.1467C68.8585 39.2046 68.3851 38.3723 68.3851 38.3723L69.647 37.5952C69.647 37.5952 71.9577 37.4287 73.7436 36.5981C75.5306 35.7642 77 34.1564 77 34.1564C77 34.1564 76.6321 31.5504 74.4794 30.1653L74.4794 30.1648ZM21.1151 37.7039C20.6817 37.6299 18.2292 37.3649 17.6483 37.1507C17.0683 36.9356 17.1227 36.2626 17.1227 36.2626L17.2278 34.7114C17.2278 34.7114 19.2174 32.2573 19.5393 32.0507C19.8596 31.8424 19.9591 32.2714 19.9591 32.2714C19.9591 32.2714 20.9912 35.3504 21.2194 36.3751C21.4475 37.3975 21.5485 37.779 21.1151 37.7039ZM29.9387 23.6219C28.3999 23.7618 26.9092 24.3415 25.2116 25.7278L32.4595 17.078C32.4595 17.078 33.2376 17.1761 33.7206 16.8564C34.2028 16.5372 34.8758 16.5231 34.8758 16.5231C34.8758 16.5231 35.9624 20.491 36.451 22.0679C36.9404 23.6456 37.2764 24.0789 36.451 24.064C35.6264 24.0499 31.4779 23.4826 29.9389 23.6217L29.9387 23.6219ZM35.0865 40.698C35.0865 40.698 34.938 37.2267 34.9807 36.0422C35.0248 34.8558 35.4503 34.0344 35.8456 34.5245C36.3697 35.175 38.4474 38.2583 38.4474 38.2583C38.4476 38.258 35.8528 40.6405 35.0865 40.6981L35.0865 40.698ZM67.4418 40.698C67.2697 41.2694 67.1561 43.6121 67.0213 44.5791C66.8864 45.5455 67.0079 45.782 66.1815 45.5762C65.3535 45.3728 61.6635 43.3593 61.6635 43.3593L65.9708 40.0319L67.2319 39.921C67.2312 39.9224 67.6121 40.1266 67.4418 40.6979L67.4418 40.698ZM70.907 53.8942C68.141 52.9386 65.2446 54.4442 60.5084 54.8913C55.7718 55.3396 51.788 53.8942 51.788 53.8942C51.788 53.8942 52.9813 55.6013 53.6798 56.8891C54.3783 58.1761 54.6773 58.3735 55.3599 58.8841C58.9443 60.2037 61.1926 62.187 62.2921 64.3182C69.3617 63.6159 72.1955 62.1865 73.4286 59.9938C74.6624 57.7978 73.6752 54.8495 70.9075 53.8942H70.907ZM22.4809 25.6177L25.2121 22.6237C25.2121 22.6237 25.8307 19.7212 23.846 18.4102C21.7436 17.0215 19.5623 18.0595 18.6982 19.4081C17.834 20.7569 17.6257 23.1801 18.9089 24.3972C20.7361 26.13 22.4809 25.6177 22.4809 25.6177ZM42.1246 32.1595C42.0702 34.1814 43.1805 36.1257 45.4858 36.0417C47.7901 35.9552 48.82 34.2774 48.9525 32.492C49.0859 30.7068 47.6165 28.8458 45.4858 28.7216C43.3556 28.5982 42.1737 30.3487 42.1246 32.1595ZM56.9354 42.472C58.5358 42.4611 60.2064 41.3282 60.1915 39.3673C60.1766 37.4064 58.7275 35.7219 57.0413 35.7086C55.3525 35.6937 53.6919 37.1081 53.6793 39.1458C53.6668 41.1826 55.3342 42.4828 56.9355 42.472H56.9354Z" fill="black"/>
</svg>
