<svg width="70" height="70" viewBox="0 0 70 70" fill="none" xmlns="http://www.w3.org/2000/svg">
<path d="M41.0377 52.1077C39.2423 50.5053 37.0633 47.7639 36.7054 45.0138C35.4078 44.205 33.2547 43.0627 32.3303 43.0627C31.1314 43.0627 28.2419 44.4476 26.0125 46.4347C24.4423 47.8344 24.0427 48.7856 24.1777 49.1752C24.2691 49.4388 24.673 49.4978 24.8424 49.511C27.7299 49.7344 31.9151 46.7871 31.957 46.7573C32.0937 46.6599 32.267 46.6266 32.4311 46.6669C32.5949 46.7067 32.7326 46.8156 32.8075 46.9644C33.9618 49.2598 36.1879 51.2706 38.3467 51.968C39.305 52.2776 40.2064 52.3236 41.0377 52.1077Z" fill="black"/>
<path d="M32.8564 49.1783C30.6042 51.0413 28.4702 53.3252 28.4988 54.3556C28.5197 55.1098 29.186 56.306 29.8305 57.4628C29.983 57.7367 30.136 58.0121 30.2852 58.2878C30.49 56.1375 31.3273 52.9465 34.2657 50.741C33.7549 50.2631 33.2801 49.7371 32.8564 49.1783Z" fill="black"/>
<path d="M38.0139 10.7892C37.434 14.1078 36.835 17.9512 36.3802 21.8527C37.7572 22.5324 38.9786 22.7171 40.0148 22.3987C41.3683 21.9831 41.9708 20.8185 41.9767 20.8068C42.0795 20.6036 42.2973 20.4802 42.5282 20.4922C42.6044 20.4973 50.1997 20.9453 53.3287 18.8414C53.6862 18.6012 54.2664 18.1342 54.137 17.7068C53.8527 16.7673 50.5494 15.2189 42.8964 15.0644C42.6457 15.0593 42.4272 14.8946 42.3572 14.6577C41.8844 13.0588 41.0401 11.9354 39.8477 11.3186C39.2492 11.0091 38.6154 10.8535 38.0139 10.7892Z" fill="black"/>
<path d="M32.3545 61.4335C32.9354 61.4628 33.753 60.7888 34.1549 58.7784C34.8634 55.2339 36.7319 54.553 38.5388 53.8946C38.9903 53.7301 39.4316 53.5685 39.8569 53.3645C39.2486 53.3523 38.6226 53.2454 37.9889 53.0407C37.0274 52.7302 36.0567 52.1908 35.1543 51.4963C31.1219 54.3567 31.3191 59.3254 31.403 60.3154C31.4545 60.9261 31.8636 61.4066 32.3545 61.4335Z" fill="black"/>
<path d="M47.4655 36.6202C50.2923 34.4143 50.2954 31.5027 49.0448 29.5956C47.9933 27.9924 45.838 26.929 43.3927 28.1679C41.5492 29.1018 40.4478 30.5172 40.1189 32.3744C39.7481 34.4682 40.481 36.34 40.9262 36.9402C41.9426 37.2411 43.0393 37.2891 44.1811 36.9181C44.4821 36.8204 44.8065 36.9812 44.9059 37.277C45.0053 37.5731 44.8419 37.8923 44.541 37.9901C40.2149 39.3967 36.6071 35.9214 34.8417 33.7252C34.3915 33.165 33.8635 32.9943 33.4642 33.2788C32.9574 33.6401 32.8019 34.5935 33.5121 35.6495C35.5497 38.6787 38.1318 41.4789 43.1795 41.4789C43.2092 41.4789 43.2378 41.4794 43.2689 41.4787C43.5841 41.4787 43.8405 41.729 43.8427 42.0397C43.8447 42.3514 43.5894 42.6059 43.2725 42.6077C43.2431 42.6078 43.2127 42.608 43.1834 42.608C42.2109 42.608 41.3207 42.5074 40.5039 42.3311C40.1014 43.3273 39.3528 44.0417 38.6971 44.5095C39.5444 44.7668 40.7079 45.1487 41.9005 45.6295C43.5182 46.2818 44.7507 46.9343 45.6103 47.596C49.6715 42.6719 47.4003 37.5176 47.2988 37.2948C47.1916 37.0585 47.2601 36.7806 47.4655 36.6202Z" fill="black"/>
<path d="M52.2149 65.9449C51.6148 65.4239 50.9348 64.8333 49.9317 64.1846C47.5416 62.6395 41.2989 63.2482 41.236 63.2547C41.0831 63.2698 40.9309 63.2247 40.8126 63.1287C40.6943 63.0327 40.6198 62.8941 40.606 62.7437C40.5908 62.5899 40.1878 59.0165 35.9165 57.1078C35.6538 57.5938 35.439 58.2054 35.2809 58.9959C34.6324 62.2407 33.0003 62.5629 32.3825 62.5629C32.3488 62.5629 32.3182 62.5619 32.2908 62.5605C32.0381 62.5467 31.7964 62.4822 31.5727 62.378C31.5704 62.402 31.5703 62.4264 31.5674 62.4503C31.4927 63.0655 31.3785 63.6695 31.2575 64.3088C30.9219 66.0811 30.5764 67.9103 31.1186 69.9997H58.7682C57.8483 69.1655 56.4437 68.0404 55.2901 67.7566C53.9111 67.4179 53.1626 66.7678 52.2149 65.9449Z" fill="black"/>
<path d="M43.4136 52.4135C43.9794 52.5583 44.8544 52.4289 45.4314 51.8999C45.9498 51.4247 46.1254 50.7225 45.9531 49.8126C45.6456 48.1885 41.1871 46.3891 37.947 45.4601C38.7576 48.9602 42.634 52.2136 43.4136 52.4135Z" fill="black"/>
<path d="M27.9184 56.295C26.436 55.7104 25.7531 54.7239 25.1485 53.8479C24.7123 53.2158 24.3356 52.6701 23.705 52.2959C23.2628 52.0337 22.5089 52.0652 21.5544 52.1061C19.5167 52.1925 16.4381 52.3232 12.9213 49.4906C12.6762 49.2931 12.64 48.9375 12.8407 48.6962C13.0412 48.4548 13.4028 48.4193 13.6481 48.617C16.8263 51.1766 19.5303 51.0622 21.5048 50.9779C22.6068 50.9315 23.559 50.8907 24.2976 51.3291C25.1435 51.8311 25.6285 52.5337 26.0977 53.2136C26.4725 53.7566 26.8348 54.2801 27.3816 54.7042C27.3657 54.5962 27.3544 54.4898 27.3515 54.3865C27.2989 52.4874 30.7009 49.4776 32.2123 48.2364C32.1712 48.1692 32.128 48.1027 32.0884 48.035C30.7881 48.8741 27.4222 50.8451 24.7519 50.6363C23.9158 50.5713 23.3106 50.1715 23.0914 49.5394C22.7357 48.5131 23.4592 47.1869 25.2419 45.5978C26.3332 44.6251 27.6358 43.7404 28.8769 43.0837C27.9403 42.0874 26.0437 39.9446 25.2647 38.1559C24.5427 38.6451 23.5566 38.8674 22.5924 39.0832C21.319 39.368 20.0022 39.6623 19.4656 40.5256C17.6784 43.4004 16.0532 44.5968 15.9848 44.6463C15.8824 44.7204 15.7632 44.7563 15.645 44.7563C15.4689 44.7563 15.2951 44.6768 15.1825 44.5266C14.9945 44.2757 15.049 43.9222 15.3042 43.7372C15.3181 43.7271 16.8285 42.6035 18.4867 39.9364C19.276 38.6668 20.9027 38.303 22.3382 37.9819C23.4341 37.7369 24.4727 37.5045 24.9249 36.9508C24.7846 35.5892 25.4999 34.276 27.0566 33.044C27.5319 32.6678 27.8005 32.0048 28.0601 31.3637C28.4211 30.4724 28.7944 29.5506 29.7612 29.2335C30.9122 28.8561 31.8143 27.9922 32.236 26.8636C32.7799 25.4086 32.4061 23.5128 31.9732 21.3177C31.5825 19.3361 31.1397 17.09 31.3422 14.779C31.4175 13.9203 29.8579 12.4148 28.6048 11.2054C27.9072 10.532 27.2472 9.89343 26.7574 9.29462C26.2117 9.21065 25.453 9.50688 24.5845 9.84686C23.5523 10.2508 22.2676 10.7536 20.782 10.8267C20.6929 10.8311 20.6057 10.8332 20.52 10.8332C18.9826 10.8332 17.9798 10.1435 16.9212 9.41557C15.9774 8.76637 15.0014 8.09531 13.4749 7.7868C13.1644 7.72414 12.9645 7.42565 13.0282 7.12025C13.092 6.81484 13.3952 6.61867 13.7057 6.68091C15.4644 7.03627 16.5876 7.80853 17.5786 8.49004C18.6125 9.20119 19.4294 9.76317 20.7244 9.69895C22.0202 9.63516 23.1572 9.19033 24.1603 8.79756C24.8606 8.52349 25.5021 8.27299 26.1094 8.18379C25.3611 6.18498 25.9419 3.22508 26.8073 1.12875H5.7618C6.43197 2.3093 6.36713 3.51553 6.30803 4.60716C6.2442 5.78404 6.18912 6.80031 6.98336 7.71327C7.8509 8.71035 8.95025 9.27289 10.1141 9.86831C11.4563 10.5549 12.8444 11.2649 13.8963 12.6826C14.0831 12.9343 14.0271 13.2876 13.7711 13.4713C13.6691 13.5447 13.5506 13.58 13.4333 13.58C13.2563 13.58 13.0817 13.4998 12.9694 13.3483C12.0763 12.1446 10.8661 11.5254 9.58469 10.8699C8.3749 10.2509 7.12408 9.61103 6.11166 8.44756C5.01877 7.19137 5.09494 5.78658 5.16207 4.54704C5.23035 3.28831 5.28787 2.19216 4.36639 1.12904H0.000143443V12.7891C3.73783 12.6988 7.29521 14.1328 7.45256 14.197C7.74518 14.3167 7.88361 14.6469 7.76225 14.9347C7.67059 15.1519 7.45701 15.283 7.23195 15.283C7.15879 15.283 7.08434 15.2692 7.01248 15.2398C6.97619 15.225 3.50459 13.8298 0.000143443 13.9189V28.3328C3.851 29.0668 9.02412 27.1061 9.07791 27.0855C9.3734 26.9722 9.70576 27.1155 9.82123 27.4059C9.93656 27.6962 9.79096 28.0234 9.4959 28.137C9.30182 28.2118 5.56945 29.6285 1.90893 29.6285C1.26359 29.6285 0.621107 29.5835 0 29.4804V70H17.3117C16.6837 69.4777 16.0524 69.1082 15.435 68.7479C14.1512 67.9985 12.8236 67.2237 11.8746 65.1865L11.8254 65.081C10.355 61.9232 9.91117 60.9703 4.63162 58.8924C4.33742 58.7767 4.19426 58.4482 4.31189 58.1587C4.42951 57.8691 4.76316 57.7277 5.05764 57.8441C9.5332 59.6054 10.8507 60.7429 11.9503 62.7393C13.3498 63.459 14.6334 63.6461 15.7669 63.2916C17.508 62.7472 18.3601 61.0862 18.3684 61.0694C18.5085 60.7905 18.8519 60.6748 19.136 60.8122C19.4198 60.9493 19.5379 61.2856 19.3993 61.5654C19.357 61.6507 18.3384 63.665 16.1287 64.3632C15.635 64.5191 15.124 64.597 14.598 64.597C13.9902 64.597 13.3615 64.4898 12.7156 64.2822C12.7658 64.3894 12.8166 64.4985 12.8687 64.6104L12.9177 64.7157C13.7174 66.4324 14.7846 67.0553 16.0204 67.7767C16.9304 68.3077 17.955 68.9065 18.9575 69.9997H29.9406C29.4353 67.7839 29.8002 65.838 30.1288 64.1021C30.2463 63.4814 30.3573 62.895 30.4276 62.3164C30.5704 61.1406 29.6424 59.4749 28.8238 58.0052C28.4959 57.4162 28.1759 56.8416 27.9184 56.295ZM7.81762 22.1873C7.78865 22.1916 7.75996 22.1938 7.73156 22.1938C7.45242 22.1938 7.20771 21.993 7.16482 21.7133C7.11762 21.4049 7.3335 21.1173 7.64678 21.071C10.3068 20.677 11.3548 19.7725 12.3682 18.8976C13.2621 18.1259 14.1865 17.3281 16.0359 16.9777C18.121 16.5825 19.4837 17.3522 20.6857 18.0318C21.7763 18.6482 22.6377 19.1346 23.881 18.6705C24.1771 18.5596 24.5086 18.7065 24.6211 18.9978C24.7335 19.2892 24.5845 19.6152 24.2883 19.7259C22.5373 20.3803 21.3054 19.6838 20.114 19.0106C18.9855 18.3727 17.9196 17.7701 16.2529 18.0863C14.7093 18.3787 13.9752 19.0125 13.1251 19.7464C12.0403 20.6827 10.8107 21.7442 7.81762 22.1873ZM7.43377 36.8343C7.33135 36.9084 7.2123 36.9441 7.0941 36.9441C6.91781 36.9441 6.7441 36.8646 6.6315 36.7142C6.44359 36.4631 6.49824 36.1097 6.75342 35.9248C9.24846 34.1178 11.3665 33.8243 13.0683 33.5884C14.1935 33.4325 15.1653 33.2977 16.0442 32.7809C17.115 32.1512 17.368 31.136 17.7507 29.5994C18.1177 28.1267 18.5741 26.2942 19.9275 24.0707C20.0903 23.8031 20.4423 23.7159 20.7146 23.8764C20.9864 24.0365 21.0749 24.3831 20.9119 24.6506C19.6475 26.7281 19.2139 28.4693 18.8653 29.8681C18.4463 31.5498 18.1154 32.8781 16.6329 33.75C15.5549 34.3838 14.4247 34.5406 13.2283 34.7063C11.5725 34.9359 9.69543 35.196 7.43377 36.8343Z" fill="black"/>
<path d="M32.4854 14.8763C32.2967 17.03 32.7049 19.1005 33.0998 21.1029C33.2279 21.7528 33.3531 22.3918 33.4522 23.0149C33.8996 22.8935 34.582 22.6025 35.2185 21.9203C35.6713 17.9921 36.2712 14.1187 36.8546 10.765C35.8925 10.8219 35.1948 11.0431 35.1814 11.0474C34.9495 11.1229 34.6936 11.0462 34.5448 10.8555C34.4423 10.7252 32.0913 7.81981 28.8236 9.83216C29.013 10.0179 29.2088 10.2071 29.4082 10.3996C31.0533 11.9873 32.6071 13.4871 32.4854 14.8763Z" fill="black"/>
<path d="M67.3784 37.6713C67.3307 37.9589 67.0686 38.1655 66.7728 38.1445C66.7457 38.1428 63.9355 37.9815 62.3843 39.5325C61.5905 40.3262 61.2487 41.4617 61.3685 42.9075C61.3817 43.0674 61.3253 43.225 61.2133 43.3414C61.1014 43.4577 60.9466 43.5207 60.7814 43.5177C57.2927 43.4267 53.5408 44.6841 52.2376 46.3811C51.8095 46.9387 51.6884 47.4837 51.8677 48.0477C52.4614 49.9147 58.7423 50.5049 62.5632 50.438C62.5666 50.4378 62.5701 50.4378 62.5734 50.4378C62.8201 50.4378 63.0397 50.5932 63.1178 50.8241C63.1232 50.8398 63.7435 52.5837 65.4457 53.2675C66.6878 53.7664 68.2189 53.6022 70 52.7801V34.0856C67.8849 34.7728 67.3837 37.6398 67.3784 37.6713Z" fill="black"/>
<path d="M36.2793 43.3968C36.3457 43.3968 36.4134 43.3853 36.4794 43.3612C36.7763 43.2524 36.9275 42.9274 36.8169 42.6351C36.5651 41.9692 36.3495 41.1913 36.1762 40.3228C36.1151 40.017 35.8134 39.8165 35.5026 39.8777C35.1916 39.9377 34.9891 40.2343 35.05 40.5403C35.2353 41.4685 35.4679 42.306 35.7414 43.029C35.8276 43.2563 36.0465 43.3968 36.2793 43.3968Z" fill="black"/>
<path d="M35.0572 32.3174C35.3681 32.3174 35.6235 32.0731 35.6306 31.7658C35.6864 29.3364 35.8727 26.5859 36.1844 23.5907C36.2167 23.2807 35.9873 23.0035 35.672 22.9716C35.3582 22.9417 35.0751 23.1656 35.0429 23.4757C34.728 26.5004 34.5398 29.2809 34.4833 31.7401C34.4761 32.0518 34.7272 32.3102 35.044 32.3173C35.0485 32.3174 35.0529 32.3174 35.0572 32.3174Z" fill="black"/>
<path d="M37.6223 9.68004C37.6564 9.6861 37.6904 9.68893 37.724 9.68893C37.9965 9.68893 38.2384 9.49699 38.2882 9.22362C39.1953 4.23387 39.9981 0.723705 40.0062 0.688846C40.0759 0.384854 39.8819 0.0825556 39.5728 0.0139669C39.2641 -0.0546218 38.9567 0.136044 38.8867 0.440318C38.8787 0.475318 38.0705 4.0082 37.1585 9.02506C37.1027 9.33187 37.3103 9.62528 37.6223 9.68004Z" fill="black"/>
</svg>
