<svg width="70" height="70" viewBox="0 0 70 70" fill="none" xmlns="http://www.w3.org/2000/svg">
<path d="M25.0689 6.80415C24.63 2.9699 21.6186 0 17.9597 0C15.5896 0 13.4945 1.25256 12.189 3.17386C11.5289 2.36106 10.5748 1.83865 9.49823 1.83865C7.51375 1.83865 5.90516 3.58101 5.90516 5.72826C5.90516 5.90189 5.93176 6.06718 5.95136 6.2355C5.68676 6.18015 5.41377 6.14527 5.13377 6.14527C2.74049 6.14527 0.801514 8.24702 0.801514 10.8386C0.801514 13.4316 2.74119 15.5334 5.13377 15.5334H23.0963C25.4602 15.5334 27.3767 13.4567 27.3767 10.8962C27.376 9.10911 26.4346 7.57753 25.0689 6.80415ZM21.6004 5.67518C21.4317 5.56828 21.2777 5.43938 21.1006 5.3537C20.9235 5.26803 20.7583 5.15657 20.5721 5.09591C20.2123 4.9511 19.842 4.83509 19.464 4.77595C19.2743 4.74638 19.086 4.7115 18.8949 4.71605C18.694 4.70923 18.5295 4.69785 18.3286 4.72667C18.1354 4.75169 17.9282 4.75093 17.7532 4.80552C17.5719 4.85632 17.3906 4.87376 17.2135 4.95034C16.8531 5.07317 16.5066 5.23315 16.1762 5.42649C15.85 5.62893 15.5469 5.87004 15.2648 6.13921L14.8707 6.57366L14.5242 7.05209L14.3639 7.275L14.1427 7.09986L13.7185 6.76624C13.5743 6.66161 13.4084 6.59565 13.2537 6.5077C13.1039 6.40685 12.9226 6.39472 12.7595 6.33179C12.5957 6.26279 12.4214 6.24536 12.2478 6.23019L11.9881 6.19986C11.9559 6.18167 11.818 6.21199 11.7368 6.21427C11.5541 6.23929 11.3539 6.23929 11.1831 6.28251L10.7022 6.44249C10.5412 6.50011 10.3921 6.61384 10.2353 6.69421C10.0715 6.76928 9.94272 6.90045 9.80552 7.01949C9.66693 7.13549 9.52833 7.25529 9.42613 7.41072C9.32113 7.56388 9.18113 7.68898 9.10203 7.8611L8.83953 8.35848L8.66454 8.90212C8.58894 9.07954 8.59944 9.27894 8.56794 9.46774L8.53224 9.75586C8.52314 9.81045 8.54414 9.94541 8.54834 10.0372L8.59874 10.6468L8.61274 10.8219L8.44334 10.8371L8.01984 10.8772L7.60825 11.0031C7.47875 11.066 7.35065 11.1403 7.22045 11.2078L6.87325 11.4952L6.58136 11.8515C6.50786 11.9888 6.42806 12.1245 6.35736 12.2655C6.30906 12.4172 6.25376 12.5673 6.20616 12.7212L6.13336 13.2065L6.15296 12.7106C6.18236 12.5483 6.22296 12.3868 6.26286 12.2238C6.32306 12.0699 6.39446 11.9205 6.46236 11.7666L6.74165 11.3572L7.09375 11.0114C7.22885 10.9227 7.36325 10.828 7.50325 10.7446C7.65304 10.6831 7.80494 10.6232 7.95824 10.5717L8.26134 10.5254L8.20324 10.0826C8.19274 9.97119 8.16964 9.90522 8.16964 9.7551L8.19064 9.43514C8.21444 9.22284 8.19554 9.00144 8.26694 8.79748L8.43354 8.17424L8.70934 7.59572C8.79893 7.40086 8.94943 7.24998 9.06843 7.07559C9.18533 6.8959 9.34003 6.75563 9.49613 6.61915C9.65013 6.47964 9.79782 6.32952 9.98192 6.23702C10.1618 6.13769 10.3256 6.01183 10.5209 5.93601L11.118 5.73281C11.314 5.68201 11.4953 5.68049 11.6836 5.65168C11.7907 5.64561 11.8411 5.61908 11.9951 5.62969L12.2982 5.65699C12.5005 5.67139 12.7028 5.69035 12.8953 5.76389C13.0871 5.83517 13.2936 5.86398 13.4672 5.97923C13.6464 6.0831 13.8361 6.16574 14.0013 6.28933L14.2701 6.50921L14.4927 6.21199L14.9344 5.74266C15.2501 5.45379 15.5861 5.19524 15.948 4.98067C16.1279 4.87224 16.3218 4.79339 16.508 4.69937C16.6963 4.60611 16.9 4.56517 17.0946 4.49693C17.2877 4.42642 17.504 4.41353 17.707 4.37107C17.917 4.32406 18.1067 4.33846 18.3055 4.32482C18.4966 4.30814 18.7262 4.32861 18.918 4.34832C19.121 4.35666 19.3205 4.40367 19.5193 4.44689C19.9176 4.53105 20.3033 4.67662 20.6638 4.86921C20.8521 4.94958 21.0152 5.08227 21.1888 5.1869C21.3638 5.29456 21.5136 5.44166 21.676 5.566C21.991 5.83972 22.257 6.15665 22.5013 6.49101C22.2213 6.18925 21.9196 5.91023 21.6004 5.67518Z" fill="black"/>
<path d="M54.3453 29.8119C56.7232 27.8391 57.1726 24.1466 55.3505 21.571C53.5186 18.9893 50.1097 18.5055 47.7325 20.4845C45.3546 22.4619 44.9052 26.1483 46.7371 28.7292C48.562 31.3041 51.966 31.7909 54.3453 29.8119Z" fill="black"/>
<path d="M62.0733 34.7221L51.5769 35.9951L45.7396 31.7325C46.133 28.5541 43.4136 25.2309 41.7756 22.6386L43.2484 28.3964C43.212 28.363 43.1805 28.3213 43.1441 28.2895L40.2153 20.3548L44.255 7.57222L41.2758 6.26355L35.6121 19.4131C35.3895 20.0091 35.3881 20.6756 35.6079 21.2708L38.0376 27.8581C38.0348 27.8603 38.0313 27.8619 38.0285 27.8641L31.0321 32.1723L37.0261 27.3167L34.7652 21.6362C34.7344 21.5513 34.7204 21.4633 34.6952 21.3777C31.6572 22.5332 28.1089 24.7555 24.8743 27.0445C20.7037 29.9939 20.7107 34.4605 21.2448 37.2712L13.9607 39.7558L2.44998 31.3466L0 34.7972L4.48696 38.9878L16.3896 44.0056L22.5685 41.5755L16.447 45.0853L3.91296 39.8013L2.21968 43.7486L15.3207 51.3754C15.705 51.5695 16.118 51.6658 16.5303 51.6658C16.993 51.6658 17.4543 51.546 17.8736 51.3041L29.7427 44.4097L29.7385 44.4014C29.7784 44.3786 29.8211 44.3612 29.8617 44.3377L42.568 36.5122C42.8333 36.3492 43.0769 36.1589 43.2995 35.9504L49.7807 40.6809C50.1629 40.9584 50.6102 41.1055 51.0638 41.1055C51.1989 41.1055 51.334 41.0941 51.4684 41.0676L62.6382 38.15L62.0733 34.7221Z" fill="black"/>
<path d="M68.206 61.0623C68.3292 60.3738 68.3978 59.6634 68.3978 58.9363C68.3978 52.8243 63.824 47.871 58.1835 47.871C54.7346 47.871 51.6931 49.7271 49.8423 52.5628C48.595 51.3618 46.957 50.6271 45.1566 50.6271C41.2562 50.6271 38.0937 54.0526 38.0937 58.2789C38.0937 58.8695 38.1623 59.445 38.2799 59.9985C35.7641 60.0455 33.7362 62.2587 33.7362 64.9951C33.7362 67.7588 35.8054 70 38.3562 70H65.3787C67.9309 70 70 67.7588 70 64.9951C69.9993 63.3892 69.2882 61.9774 68.206 61.0623ZM65.0308 60.5255C64.9601 60.141 64.7473 59.8256 64.615 59.4784C64.5359 59.3108 64.4757 59.1357 64.3812 58.9772L64.0746 58.5192C63.8688 58.2167 63.6854 57.8975 63.4166 57.6556C63.1611 57.4047 62.9504 57.1022 62.6676 56.8914L61.8255 56.2545L60.8987 55.7897C60.5977 55.6153 60.2463 55.588 59.925 55.4788C59.7612 55.4386 59.6009 55.3772 59.435 55.353L58.9283 55.3211L58.4243 55.2787C58.3501 55.2749 58.2346 55.2567 58.194 55.2627L57.9287 55.284L57.3967 55.3295L56.9151 55.4333C56.5966 55.4819 56.2795 55.6214 55.9624 55.729C55.6523 55.8602 55.3471 56.0118 55.0517 56.1749C54.7703 56.3697 54.4693 56.5312 54.2159 56.7685C53.9415 56.9763 53.6979 57.2227 53.4641 57.4797C53.2149 57.7201 53.0329 58.0317 52.8096 58.2986L52.4722 58.7058L52.1047 58.3312L51.7386 57.9612C51.628 57.8187 51.4677 57.7519 51.3305 57.6503C51.1891 57.5548 51.0526 57.4471 50.8867 57.4062C50.7278 57.3516 50.5745 57.2803 50.4135 57.2318L49.9172 57.1711L49.7926 57.1545L49.7625 57.1469L49.6995 57.1537L49.4153 57.184C49.2229 57.2 49.0276 57.2174 48.896 57.2826C48.7483 57.3425 48.5957 57.3584 48.4466 57.4441L47.9972 57.6958C47.8621 57.8027 47.7333 57.9225 47.601 58.034C47.4533 58.1341 47.3721 58.3024 47.2531 58.4343C47.1313 58.5655 47.0417 58.7209 46.9668 58.887C46.8891 59.0492 46.7813 59.1994 46.7414 59.3798C46.6924 59.555 46.6182 59.7278 46.5811 59.9075L46.5132 60.461C46.4838 60.599 46.5279 60.8553 46.5314 61.0448L46.5398 61.4694L46.1457 61.4141L45.7096 61.3527L45.4905 61.3193C45.4674 61.3147 45.3883 61.3079 45.41 61.3034L45.291 61.314C44.9858 61.3565 44.6309 61.3223 44.3684 61.4262L43.9519 61.5536C43.8098 61.5801 43.6775 61.6666 43.5452 61.7386L43.1406 61.9562C43.009 62.035 42.8977 62.1473 42.7731 62.2398C42.6555 62.3429 42.5211 62.4263 42.414 62.5438L42.1074 62.9093C42.0031 63.0306 41.8925 63.1496 41.8246 63.3013L41.5824 63.7281C41.4151 64.0125 41.3563 64.3506 41.2296 64.6622C41.175 64.823 41.1694 64.9943 41.1379 65.1611L41.0588 65.6707L41.0749 65.1536C41.0875 64.9807 41.0721 64.8025 41.1092 64.6319C41.1981 64.2998 41.2373 63.9397 41.3836 63.625L41.5978 63.1473C41.6594 62.979 41.7602 62.8418 41.861 62.6985L42.1585 62.2709C42.2628 62.1306 42.3979 62.0244 42.5169 61.9001C42.6436 61.7841 42.7584 61.6484 42.897 61.546L43.3289 61.2723C43.4752 61.1828 43.6145 61.0797 43.7846 61.0327L44.2774 60.8538C44.6134 60.7158 44.913 60.7393 45.2329 60.6733L45.3512 60.6574C45.4534 60.6521 45.452 60.6612 45.5073 60.6627L45.7614 60.6809L45.8426 60.6877C45.8356 60.6119 45.8272 60.5399 45.8314 60.4421L45.8776 59.7635C45.9112 59.5398 45.9826 59.3237 46.0365 59.1031C46.0792 58.8764 46.1961 58.6823 46.2892 58.4775C46.3816 58.2698 46.4873 58.0742 46.6308 57.9021C46.7701 57.7315 46.8779 57.5237 47.0515 57.388C47.2118 57.2417 47.3721 57.0862 47.5408 56.9482L48.098 56.6093C48.2842 56.4986 48.5166 56.444 48.7266 56.3667C48.9534 56.2765 49.1396 56.2621 49.3258 56.2439L49.6113 56.2113L49.682 56.2022C49.7149 56.2006 49.6617 56.2006 49.7618 56.1976L49.8038 56.2014L49.9634 56.2181L50.6032 56.2947C50.8097 56.3523 51.012 56.4372 51.215 56.5092C51.425 56.5691 51.6063 56.6958 51.7876 56.8163C51.9682 56.9407 52.1677 57.0385 52.3154 57.2106L52.4001 57.2947C52.5324 57.1188 52.6696 56.9452 52.8257 56.7936C53.0931 56.5039 53.3724 56.231 53.6839 55.9959C53.9751 55.7321 54.3146 55.5486 54.6366 55.3378C54.9726 55.1558 55.3177 54.9799 55.6726 54.8495C56.0366 54.7373 56.3873 54.5978 56.7772 54.547L57.3463 54.4499L57.879 54.4234L58.1443 54.4098C58.2808 54.4029 58.3438 54.4257 58.4467 54.4317L59.0067 54.4969L59.5624 54.5728C59.7458 54.6114 59.9208 54.6873 60.1 54.7441C60.45 54.8859 60.8273 54.945 61.1486 55.1551L62.1272 55.726L62.9959 56.4675C63.285 56.7147 63.5006 57.0491 63.7512 57.3364C64.0095 57.6208 64.1761 57.9779 64.3623 58.3183L64.6395 58.8271C64.7214 59.0015 64.7711 59.1971 64.8383 59.3798C64.9433 59.7559 65.1316 60.1069 65.1645 60.4936L65.3248 61.6385L65.0308 60.5255Z" fill="black"/>
</svg>
