<svg width="70" height="70" viewBox="0 0 70 70" fill="none" xmlns="http://www.w3.org/2000/svg">
<path d="M31.0401 8.99707C31.0742 8.90164 31.1294 8.81603 31.2012 8.74725C31.273 8.67847 31.3593 8.62848 31.4531 8.60137C32.7328 8.18221 34.0518 8.01227 35.329 7.70344C35.0223 7.61325 34.7304 7.47515 34.463 7.29379C33.9616 6.93931 33.8168 6.62161 33.8647 6.54361C33.9252 6.44659 34.2517 6.64444 34.7004 6.80551C35.31 7.02736 35.9554 7.12131 36.5996 7.08199C36.8757 7.06824 37.1505 7.03434 37.422 6.98053C37.9665 6.72059 38.474 6.38299 38.93 5.97733C39.0133 5.90247 39.113 5.85021 39.2201 5.82514C39.3014 5.73891 39.4032 5.67696 39.515 5.64568C41.2955 5.14408 42.9707 4.24615 44.8172 4.05274C44.8434 3.75399 44.7995 3.45306 44.6892 3.17618C44.5789 2.89929 44.4055 2.65487 44.1843 2.46424C41.7086 2.3076 39.5938 1.85674 37.0835 2.33741C35.2194 2.69633 33.342 2.85296 31.5476 3.52958C31.5391 3.52958 31.53 3.53465 31.5173 3.53465C30.4224 4.09142 29.3232 4.63931 28.2064 5.14091C28.9998 6.56644 29.7205 8.06743 31.0401 8.99707Z" fill="black"/>
<path d="M1.19428 12.7493C1.19004 12.7721 1.18096 12.786 1.17672 12.8044C1.17248 12.8228 1.18096 12.8228 1.18096 12.8368C1.11807 13.4569 1.18249 14.0839 1.36991 14.6758C1.3739 14.6386 1.37997 14.6018 1.38808 14.5654C1.47389 14.1491 1.58845 13.7399 1.73085 13.3409C1.97673 12.6687 2.14873 12.2959 2.24078 12.2959C2.35524 12.3047 2.351 12.7886 2.24078 13.4792C2.18809 13.8286 2.11299 14.2401 2.05909 14.684C2.02821 14.9326 1.69573 15.8889 2.11966 15.9681C2.33041 16.01 2.46243 15.6644 2.6205 15.5585C2.75611 15.4839 2.90479 15.4389 3.05751 15.4262C3.21022 15.4136 3.3638 15.4335 3.50893 15.4849C3.58827 15.5077 3.63006 15.4894 3.63006 15.5128L3.83233 15.471C3.93525 15.4482 4.03554 15.414 4.1315 15.3689C4.20175 15.3276 4.22356 15.3093 4.24112 15.2674C4.28109 15.171 4.20599 14.9916 4.17511 14.8901C4.1315 14.7798 4.11818 14.7062 4.14907 14.6783C4.17995 14.6504 4.24596 14.6694 4.35134 14.7417C4.41619 14.7911 4.47391 14.8501 4.52273 14.9167C4.60782 15.0195 4.65733 15.1493 4.66323 15.2852C4.66538 15.382 4.6463 15.4781 4.60745 15.5661C4.56861 15.654 4.51104 15.7315 4.43916 15.7925C4.31248 15.9036 4.16927 15.9923 4.01523 16.055C3.93589 16.0873 3.8614 16.1146 3.79115 16.1381C3.67662 16.1608 3.55966 16.167 3.44353 16.1565C3.31356 16.1426 3.18275 16.1394 3.0523 16.1469C3.01718 16.1653 2.8585 16.322 2.64351 16.497L2.53329 16.5661C2.48904 16.593 2.44187 16.6143 2.39279 16.6295C2.3304 16.653 2.26515 16.6671 2.19899 16.6714C2.55594 17.1064 2.86287 17.5838 3.11347 18.0937C3.32968 18.7055 3.50175 19.3333 3.62824 19.972C4.40221 20.603 6.31474 20.7045 6.87735 19.8294C6.88208 19.7467 6.90378 19.666 6.94099 19.5929C6.9782 19.5198 7.03003 19.456 7.09295 19.4058C7.97654 18.6188 8.8032 17.7716 9.63653 16.9288C9.87472 15.5162 9.95298 14.079 9.86969 12.6472C9.49199 12.5734 9.13557 12.4096 8.82803 12.1684C8.51778 11.8778 8.1643 11.6422 7.78154 11.4709C7.74509 11.4566 7.70967 11.4397 7.67555 11.4201C5.4469 11.4892 3.12073 11.793 0.949005 11.2635C1.19144 11.7145 1.27806 12.2392 1.19428 12.7493Z" fill="black"/>
<path d="M48.8469 6.32676C48.9545 6.28779 49.0652 6.25872 49.1776 6.23989C50.0491 6.73324 51.0078 6.22974 51.9356 5.97101C52.0517 5.93738 52.1503 5.85681 52.2097 5.74705C52.2691 5.63728 52.2844 5.50731 52.2523 5.38571C52.2202 5.26411 52.1432 5.16086 52.0384 5.09866C51.9336 5.03647 51.8095 5.02042 51.6933 5.05406C51.416 5.13142 51.0496 5.30327 50.6801 5.41995C50.3319 5.3242 49.7009 5.36351 49.5579 5.30517C48.8811 4.98532 48.2599 4.54962 47.7199 4.01598C47.58 3.88776 47.4626 3.73497 47.3729 3.56448C47.3123 3.44526 47.2935 3.36219 47.3287 3.32097C47.3947 3.22839 47.663 3.39453 48.0233 3.56448C48.3576 3.7395 48.8324 3.94496 49.369 4.24617C49.2987 4.13076 49.237 4.00647 49.1752 3.88218C49.0658 3.78666 48.9964 3.65009 48.982 3.5017C48.8415 2.5765 47.795 2.22646 47.0386 1.99627C46.514 1.8193 45.9601 1.75819 45.4119 1.81681C45.734 2.22104 45.959 2.70006 46.0682 3.2139C46.1775 3.72774 46.1678 4.26149 46.0399 4.7706C46.0242 4.87797 45.98 4.97855 45.9124 5.06085C45.8447 5.14316 45.7562 5.20387 45.6572 5.23605C45.5458 5.33614 45.4042 5.39164 45.2575 5.39268C45.2322 5.39345 45.2071 5.39642 45.1824 5.40156C45.5593 5.81306 46.0101 6.14253 46.509 6.37106C47.0078 6.59959 47.5449 6.72268 48.0893 6.73324C48.2843 6.72753 48.6441 6.40096 48.8469 6.32676Z" fill="black"/>
<path d="M10.8671 17.5097C10.8489 17.6074 10.8082 17.6989 10.7484 17.7763C10.6887 17.8537 10.6117 17.9145 10.5243 17.9536C9.86483 18.6169 9.20532 19.2701 8.52582 19.9055C9.52387 20.5643 11.7004 21.2086 12.3073 19.9239C13.0588 18.3309 12.2939 16.9314 11.907 15.3936C11.6629 15.5843 11.397 15.7422 11.1154 15.8635C11.0675 16.4174 10.9846 16.9673 10.8671 17.5097Z" fill="black"/>
<path d="M15.7787 3.10725C16.2317 2.86755 16.4339 2.7756 16.4951 2.85867C16.5478 2.92716 16.4642 3.14403 16.0294 3.5169C15.7285 3.78261 15.371 3.96877 14.9871 4.05972C14.7555 4.11112 14.5167 4.11585 14.2834 4.07367C14.3936 4.59873 14.4948 5.13711 14.5826 5.68056C14.7192 5.77274 14.8722 5.83494 15.0324 5.86338C15.1926 5.89183 15.3566 5.88594 15.5146 5.84607C15.7251 5.7827 15.917 5.66467 16.0723 5.50292C16.2276 5.34118 16.3414 5.14096 16.4031 4.92087C16.5424 4.43382 16.745 3.9691 17.005 3.53973C17.083 3.42211 17.1797 3.31937 17.2909 3.23598C17.3668 3.192 17.4462 3.15508 17.5283 3.12564C17.6148 3.11158 17.7032 3.11611 17.7881 3.13896C17.8583 3.1713 17.9595 3.21759 18.0031 3.24486L18.0382 3.28164C18.05 3.30083 18.0603 3.32098 18.0691 3.34188C18.0845 3.32686 18.0979 3.3098 18.1091 3.29115C18.1836 3.20808 18.258 3.13452 18.3289 3.06096C18.43 2.99184 18.5263 2.93413 18.619 2.87072C18.711 2.82443 18.8007 2.79272 18.8915 2.75087C19.1635 2.65617 19.443 2.58699 19.7267 2.54414C20.1445 2.48073 20.3202 2.46107 20.3426 2.51624C20.365 2.57141 20.2063 2.69126 19.8018 2.84789C19.6037 2.93033 19.3445 3.01784 19.0587 3.16496C18.9884 3.20174 18.9133 3.23852 18.8431 3.28417C18.7728 3.32983 18.711 3.39007 18.6366 3.44588L18.5572 3.55178L18.5136 3.60188L18.5045 3.61583L18.4779 3.64373L18.4694 3.66212L18.43 3.73568C18.3374 3.93353 18.2362 4.14089 18.1351 4.35713C18.0431 4.22396 17.9462 4.06733 17.845 3.93353C17.7966 3.86441 17.7481 3.80036 17.6954 3.73124C17.6645 3.69446 17.6736 3.71729 17.6603 3.70778C17.6427 3.72173 17.6385 3.6989 17.6161 3.73124C17.5675 3.78041 17.5235 3.83435 17.4847 3.89231C17.2744 4.28432 17.1105 4.7017 16.9966 5.13521C16.9053 5.46201 16.7365 5.75928 16.5059 5.99926C16.2752 6.23923 15.9902 6.41408 15.6775 6.50747C15.355 6.59595 15.0153 6.58782 14.697 6.48401C14.7611 7.02046 14.7993 7.55994 14.8115 8.10041C16.847 8.7263 18.3198 8.53733 18.9708 8.07251C19.224 7.90475 19.4399 7.68201 19.6037 7.41936C19.7091 7.24941 19.7854 7.18029 19.8278 7.19424C19.8702 7.20819 19.8853 7.30458 19.8369 7.53033C19.7454 7.90057 19.5379 8.22795 19.2476 8.45997C18.7143 8.8864 18.0653 9.12444 17.3944 9.13976C16.5213 9.18295 15.6474 9.07256 14.8091 8.81318C14.8006 8.98313 14.783 9.15371 14.7655 9.32429C16.8403 10.2032 19.2852 9.59126 20.305 8.05602C20.5648 7.68036 20.7434 7.24996 20.8283 6.79473C20.8789 6.26917 20.9701 5.74876 21.1008 5.23857C21.1999 4.91538 21.388 4.6301 21.6416 4.41864C21.8912 4.22755 22.1867 4.11294 22.4949 4.08762H22.5155C22.85 4.19165 23.2043 4.20496 23.545 4.1263C23.6869 4.08844 23.824 4.03287 23.9532 3.96079C24.0777 3.94114 24.2009 3.9134 24.3221 3.87772C24.4607 3.84628 24.5893 3.77817 24.6957 3.67987C24.8051 3.57514 24.8972 3.45215 24.9682 3.31588C25.0082 3.23788 25.0518 3.15481 25.0894 3.07174L25.1287 2.99374L25.1372 2.97979C25.1497 2.95585 25.1661 2.93439 25.1857 2.91638C25.1958 2.90639 25.2077 2.89862 25.2208 2.89355C25.2299 2.88911 25.2383 2.88911 25.2432 2.88467L25.2299 2.87072L25.2232 2.86628C25.2317 2.86121 25.2377 2.85296 25.2462 2.84789C25.8315 2.53594 26.4964 2.4269 27.1448 2.53653C26.8248 2.35503 26.471 2.24855 26.1078 2.22446C25.7446 2.20037 25.3808 2.25925 25.0415 2.39702C24.7062 2.55926 24.4024 2.78524 24.1458 3.0635C23.9429 3.28295 23.6842 3.43698 23.4003 3.50739C23.1105 3.57726 22.808 3.56434 22.5246 3.46998C22.3238 3.42079 22.1158 3.41325 21.9123 3.44778C21.8752 3.4584 21.8388 3.47153 21.8033 3.4871C21.7073 3.47582 21.6101 3.48226 21.5162 3.50612C21.4238 3.51912 21.3335 3.54537 21.248 3.58412C21.1595 3.61826 21.0742 3.66071 20.993 3.71095C20.6855 3.88974 20.415 4.13073 20.1972 4.41991C20.102 4.54243 20.0195 4.6753 19.9513 4.81624C19.8863 4.93717 19.8388 5.06753 19.8102 5.20306C19.7497 5.47003 19.7182 5.74144 19.6655 5.97607C19.625 6.19232 19.5489 6.39958 19.4408 6.58864C19.356 6.72477 19.2375 6.83433 19.098 6.90571C18.8782 6.99766 18.7686 6.952 18.7686 6.92854C18.7244 6.83215 19.2434 6.82264 19.2827 5.91392C19.3045 5.69261 19.3045 5.43515 19.3488 5.11238C19.3687 4.93423 19.4146 4.76035 19.485 4.59683C19.553 4.41453 19.6417 4.24144 19.7491 4.08128C19.9923 3.70681 20.3065 3.38866 20.672 3.14657C20.7747 3.07468 20.8835 3.01311 20.9972 2.96267C21.1192 2.90104 21.2477 2.85464 21.38 2.82443C21.6607 2.75939 21.9514 2.75636 22.2333 2.81555C22.702 2.96859 23.194 3.02796 23.6837 2.99057C23.8466 2.97218 24.0096 2.80033 24.2118 2.57141L24.3699 2.39195C24.4897 2.21055 24.6494 2.062 24.8356 1.95884C24.6937 1.88685 24.5369 1.85336 24.3794 1.86145C24.2219 1.86954 24.0689 1.91895 23.9345 2.00513C23.5592 2.16412 23.1563 2.23929 22.7517 2.22581C22.5543 2.23088 22.352 2.23532 22.1406 2.23532L21.5998 2.30444C21.4018 2.33678 21.1601 2.39639 20.9845 2.4059L21.0766 2.01908V2.01401C21.1323 1.99308 21.1862 1.97406 21.2449 1.95059C21.5069 1.86128 21.7304 1.67804 21.876 1.43314C21.9807 1.20131 22.0193 0.942737 21.987 0.688507C21.9548 0.434276 21.8532 0.195198 21.6943 0C21.7674 0.40097 21.6904 0.816005 21.4793 1.1592C21.317 1.36022 20.8616 1.40524 20.4334 1.5828C20.1488 1.70962 19.8629 1.81996 19.5771 1.93347C19.3899 1.89479 19.207 1.8523 19.0278 1.81552C18.8349 1.74966 18.6316 1.72427 18.4293 1.74081C18.2271 1.75735 18.03 1.81549 17.8493 1.91191C17.7221 1.96708 17.5901 2.02225 17.458 2.08249C17.3394 2.12534 17.218 2.15904 17.0947 2.18332C16.9798 2.22349 16.8597 2.24488 16.7386 2.24673C16.523 2.24229 16.294 2.23278 16.0482 2.20995C15.8544 2.196 15.6612 2.17761 15.468 2.15922L15.7708 1.77304C16.0379 1.7458 16.291 1.63536 16.4975 1.45597C16.5184 1.43902 16.5355 1.41767 16.548 1.3933C16.5604 1.36894 16.5677 1.34211 16.5696 1.31456C16.7398 1.13167 16.8395 0.889321 16.8494 0.634133C16.6634 0.828533 16.43 0.96583 16.1747 1.0311C15.9628 1.07486 15.8223 0.956907 15.4074 0.926468C15.0756 0.932264 14.752 1.03553 14.4736 1.22451C14.4104 1.27109 14.3498 1.32126 14.2919 1.3748C14.1289 1.41916 13.9785 1.50399 13.8534 1.62211C13.7207 1.74845 13.6026 1.89061 13.5016 2.04571C13.7759 2.43432 13.9828 2.87051 14.1126 3.33427C14.3897 3.42298 14.6817 3.44861 14.9691 3.40946C15.2564 3.3703 15.5325 3.26726 15.7787 3.10725Z" fill="black"/>
<path d="M12.6361 11.6198L12.5846 11.3788L12.3563 11.4423C11.958 11.5761 11.5792 11.7667 11.2305 12.0085L10.9525 12.1804V12.3167L10.9574 12.3744C10.9707 12.9997 10.9828 13.6256 10.9743 14.2464L10.9677 14.7436L11.3413 14.4379C12.1256 13.7955 12.8457 12.59 12.6361 11.6198Z" fill="black"/>
<path d="M33.4844 31.5697C32.6492 32.2926 31.6996 33.3053 30.6222 33.7568C32.2574 35.6307 33.3475 38.1323 34.801 40.133C35.2899 40.7913 35.8297 41.4064 36.4149 41.972V41.9676C37.0345 41.4241 38.0767 40.7748 37.9798 39.8083C37.9759 39.7484 37.979 39.6881 37.9889 39.6289C37.9841 39.6105 37.9841 39.5965 37.9798 39.5781V38.9225C37.7009 39.2046 37.3821 39.4399 37.0345 39.62C36.2472 40.0296 35.6845 40.0113 35.6761 39.9193C35.6494 39.8045 36.1291 39.6295 36.7662 39.1507C37.1269 38.8842 37.4434 38.5575 37.7031 38.1837C37.8357 37.9754 37.9338 37.7452 37.9931 37.5026C37.9974 37.3549 38.0065 37.2033 38.0149 37.0587C38.0149 37.0499 38.0107 37.0454 38.0107 37.0359C37.734 37.2967 37.4267 37.5196 37.0962 37.6992C36.6568 37.9234 36.1733 38.0368 35.6845 38.0302C35.366 38.0289 35.051 37.9616 34.7574 37.8324C34.5593 37.7449 34.4545 37.6713 34.4624 37.6206C34.4703 37.5698 34.5987 37.547 34.81 37.5515C35.0923 37.5615 35.3749 37.5445 35.6543 37.5007C36.0525 37.4365 36.4356 37.2945 36.7837 37.0822C37.2125 36.7995 37.5973 36.4496 37.9247 36.0448L38.1227 35.8006C38.1902 35.2112 38.3003 34.628 38.4522 34.0561L38.5182 33.8075C38.3171 34.0242 38.1057 34.2301 37.8847 34.4245C36.7989 35.3637 35.9195 35.5755 35.8977 35.4924C35.845 35.377 36.6057 34.9953 37.5329 34.0149C38.0753 33.4491 38.5466 32.8132 38.9355 32.1226L38.9615 32.0808C39.0717 31.6115 39.1638 31.1416 39.2431 30.6724C38.4482 31.4502 37.5223 32.0667 36.5124 32.4904C35.2685 33.0066 34.477 32.9191 34.4636 32.8405C34.4376 32.7206 35.2461 32.5963 36.3017 32.0072L36.7256 31.777C36.8661 31.6807 37.0114 31.5868 37.1653 31.4777C37.4876 31.2624 37.7975 31.0271 38.0931 30.7732C38.5681 30.359 39.0012 29.8947 39.3854 29.3876L39.4121 28.9869C39.4134 28.9115 39.4267 28.8369 39.4515 28.7662C39.4519 28.6389 39.487 28.5144 39.5526 28.4073C39.9442 27.7802 40.3009 27.1299 40.6209 26.4598C40.0214 26.824 39.3478 27.0337 38.6557 27.0718C37.2834 29.0515 35.2564 30.0414 33.4844 31.5697Z" fill="black"/>
<path d="M7.77607 10.0333C7.90688 10.0261 8.0364 10.0633 8.1455 10.1392C8.56372 10.297 8.95294 10.5288 9.29616 10.8246C9.53784 11.0776 9.85 11.2437 10.1876 11.299C11.1021 10.9908 11.7749 10.2355 12.7918 10.2267C12.8817 10.2224 12.9715 10.2392 13.0544 10.2758C13.1374 10.3125 13.2115 10.368 13.2714 10.4385C13.2714 10.4334 13.2714 10.4334 13.2757 10.4334C13.2709 10.3669 13.2768 10.3 13.2932 10.2355C13.7286 8.42636 13.438 6.40538 13.051 4.60507C12.5453 2.26195 10.8708 1.23022 8.65361 0.91759C4.93393 0.388089 1.43894 1.8244 0.0187741 5.65456C0.0139292 5.66851 0.00545041 5.67803 0.00121111 5.69198C-0.00302818 5.70593 0.00545039 5.71925 0.00545039 5.73763C0.0187739 6.25762 0.013929 6.77381 0.00968966 7.2938C0.0230132 7.31663 0.0363367 7.34453 0.0490546 7.37179C0.124151 7.51955 0.170177 7.59755 0.170177 7.68886C0.258597 7.79032 0.363974 7.89178 0.337327 8.00212C0.319063 8.06649 0.281299 8.12289 0.229735 8.16281C0.178171 8.20274 0.115604 8.22401 0.0514771 8.22344C0.0339143 8.21836 0.0211965 8.21392 0.00363368 8.20948C-0.00121123 8.63308 -0.00121123 9.06113 0.00363368 9.48473C2.38612 10.6452 5.23492 10.1024 7.77607 10.0333ZM11.8228 3.20554C11.9064 3.15037 12.1256 3.26896 12.3939 3.58602C12.7284 4.04369 12.9477 4.58208 13.0316 5.1517C13.2078 6.4726 12.7724 7.46248 12.5919 7.41238C12.3812 7.36165 12.4514 6.38572 12.2976 5.27155C12.2191 4.80413 12.1059 4.34384 11.959 3.89484C11.8228 3.52768 11.7332 3.27022 11.8228 3.20554ZM8.46647 1.23022C8.85346 1.40524 9.10419 1.70455 9.02061 1.9024C8.93704 2.10025 8.59002 2.13259 8.2424 1.97152C7.85965 1.84469 7.60469 1.56631 7.66646 1.36402C7.72823 1.16173 8.08433 1.10149 8.46647 1.23022ZM6.56727 1.97659C6.61087 1.88401 6.76531 1.84977 6.99786 1.89796C7.29028 1.99684 7.55985 2.15838 7.7894 2.37229C7.99566 2.55668 8.18411 2.76185 8.35201 2.98486C8.47314 3.15037 8.55005 3.29749 8.50645 3.39895C8.46284 3.50041 8.29932 3.5188 8.06192 3.44524C7.78426 3.33516 7.52812 3.17291 7.30612 2.96647C7.10513 2.79237 6.92095 2.59802 6.75622 2.38624C6.61087 2.21946 6.51882 2.07742 6.56727 1.97659ZM4.90971 3.26515C4.95331 2.82126 5.11198 2.44078 5.3185 2.43697C5.52501 2.43317 5.6964 2.83711 5.64856 3.35773C5.5777 3.93289 5.29245 4.21381 5.09866 4.16308C4.90486 4.11235 4.87034 3.65197 4.90971 3.26515ZM2.46485 3.43129C2.34372 3.26071 2.61867 2.82316 3.08499 2.45029C3.55132 2.07742 4.02612 1.92079 4.14906 2.09137C4.272 2.26195 3.99947 2.69887 3.53315 3.07237C3.06683 3.44588 2.58839 3.60124 2.46485 3.43129ZM3.33996 8.07632C3.32239 7.86452 3.72271 7.66223 4.22839 7.62545C4.71288 7.57916 5.13378 7.71296 5.17315 7.92476C5.21251 8.13656 4.81705 8.34836 4.28956 8.40353C3.78387 8.43397 3.35752 8.29256 3.33996 8.07632Z" fill="black"/>
<path d="M32.0951 10.0605C31.4508 10.8963 31.0512 11.9093 30.9444 12.9775C30.9274 13.0817 30.8857 13.1798 30.8233 13.2629C30.7933 13.3395 30.7525 13.4109 30.7022 13.4747C30.4163 13.8854 30.0917 14.2648 29.7332 14.6073C29.6938 14.7227 29.6538 14.833 29.6121 14.9478C31.0322 13.788 32.6323 12.89 34.1009 11.7251C34.1474 11.6567 34.2038 11.5961 34.268 11.5457C34.6023 11.2955 34.8736 10.9642 35.059 10.5802C35.2443 10.1962 35.338 9.77097 35.3321 9.34079C35.3282 9.28228 35.3312 9.2235 35.3412 9.16577C34.3116 9.4004 33.2657 9.52469 32.2525 9.7999C32.2179 9.89728 32.1643 9.98604 32.0951 10.0605Z" fill="black"/>
<path d="M36.3907 19.6181C36.0788 19.7196 35.753 19.8255 35.4217 19.9086C34.142 20.2352 32.9944 20.4286 32.1514 20.6125C32.046 20.7647 31.9316 20.9118 31.8129 21.064C31.6595 21.2756 31.4936 21.477 31.3162 21.667C31.1358 21.8606 30.9511 22.0541 30.7621 22.2473C30.5689 22.4375 30.3666 22.6157 30.1686 22.7996C29.3335 23.5225 28.568 24.2359 27.8909 24.8992C28.1509 24.8392 28.4499 24.7758 28.7878 24.709C29.3771 24.5821 30.0675 24.3545 30.8414 24.1655C31.6106 23.9493 32.4463 23.6684 33.3342 23.4046C33.7787 23.2619 34.2135 23.1236 34.6314 22.9905C35.0268 22.8636 35.4054 22.7508 35.7966 22.6632C35.7552 22.4979 35.7418 22.3262 35.7572 22.1559C35.8317 21.2162 36.4519 20.3924 36.7153 19.5129C36.6063 19.549 36.5003 19.5814 36.3907 19.6181Z" fill="black"/>
<path d="M25.9336 60.261C25.837 60.3159 25.7539 60.3936 25.6908 60.4879C25.6278 60.5822 25.5865 60.6906 25.5702 60.8044C27.1617 62.4481 30.8947 61.6053 32.8981 61.5178C36.2175 61.3707 40.6802 61.1177 43.7319 59.3034C43.7835 59.0162 43.7863 58.7217 43.7404 58.4334C41.9599 59.313 39.6077 59.3542 37.7212 59.7017C34.7071 60.259 31.654 60.553 28.5934 60.5806C28.5807 60.5806 28.5716 60.5717 28.5583 60.5717C28.5078 60.6166 28.4427 60.6393 28.3766 60.6351C27.8465 60.5599 27.3462 60.3337 26.9304 59.9813C26.583 59.9998 26.2432 60.0951 25.9336 60.261Z" fill="black"/>
<path d="M47.5497 59.1424C47.4885 59.1349 47.4306 59.1094 47.3826 59.0689C47.3419 59.1878 47.3317 59.3159 47.3529 59.4402C47.3742 59.5646 47.4261 59.681 47.5037 59.7778C49.8959 60.3301 52.2523 59.6072 54.662 59.6028C54.7144 59.5272 54.78 59.4626 54.8552 59.4126C56.451 58.3345 57.4594 56.701 58.7027 55.2412C59.8445 53.9849 60.8231 52.5764 61.6133 51.0521C61.2381 50.6677 60.8238 50.3274 60.3778 50.0375C60.2942 50.0299 60.2132 50.0033 60.1404 49.9595C60.0927 50.2156 59.992 50.4575 59.8455 50.6685C58.5967 52.5189 57.3352 54.453 55.9587 56.1975C53.8063 58.9262 50.843 59.5933 47.5497 59.1424Z" fill="black"/>
<path d="M30.5078 59.4968C30.2706 59.3585 30.0218 59.2431 29.7647 59.1519C29.1051 59.3217 28.4549 59.5291 27.817 59.7733C27.9903 59.8612 28.1756 59.9202 28.3663 59.9484C28.3796 59.9484 28.3887 59.9572 28.4014 59.9572C28.4538 59.9161 28.5176 59.8938 28.5831 59.8938C31.5859 59.8947 34.5824 59.6081 37.5353 59.0377C39.4169 58.6573 41.8527 58.6693 43.5763 57.753C43.4059 57.1994 43.1612 56.6739 42.8495 56.1924C39.5962 57.1227 36.1933 56.805 32.8999 57.4911C33.0447 57.5545 33.19 57.6103 33.3396 57.661C33.4215 57.6867 33.4906 57.7449 33.5322 57.8232C33.5738 57.9014 33.5846 57.9936 33.5622 58.08C33.5399 58.1665 33.4862 58.2404 33.4126 58.286C33.339 58.3316 33.2513 58.3454 33.1682 58.3243C32.7692 58.1966 32.3836 58.0267 32.0176 57.817C31.9213 57.909 31.8244 58.0073 31.7275 58.1024C31.9091 58.1994 32.0836 58.3002 32.2683 58.3833C32.3439 58.4299 32.3989 58.5058 32.4216 58.5945C32.4442 58.6832 32.4327 58.7778 32.3894 58.8576C32.3435 58.935 32.2712 58.9912 32.1872 59.0148C32.1031 59.0384 32.0137 59.0275 31.937 58.9845C31.6687 58.8576 31.4138 58.7131 31.1539 58.5748C31.0011 58.6672 30.8424 58.7487 30.6791 58.819C30.7318 58.8507 30.7894 58.8741 30.8421 58.9058C30.9084 58.9563 30.9544 59.031 30.971 59.1151C30.9876 59.1992 30.9736 59.2867 30.9318 59.3606C30.89 59.4345 30.8234 59.4895 30.7449 59.5147C30.6665 59.5398 30.5819 59.5335 30.5078 59.4968Z" fill="black"/>
<path d="M39.5126 22.6474C39.0444 22.7755 38.5683 22.8694 38.0876 22.9283C37.78 22.9702 37.459 23.0298 37.112 23.0894C37.0768 23.0945 37.0411 23.0989 37.0017 23.1078C37.1513 23.2828 37.3227 23.4718 37.4899 23.6975C37.9029 24.2727 38.0658 25.1199 38.4704 25.6957C40.1237 25.6215 40.9988 24.586 41.5263 22.993C41.5569 22.8903 41.6112 22.7971 41.6844 22.7216C41.6886 22.7121 41.6886 22.7077 41.6934 22.7032C42.1607 21.1939 42.3734 19.6109 42.3221 18.0252C41.6008 16.6301 39.8288 15.9491 38.4177 15.5623C38.1149 16.5616 37.8326 17.5604 37.5426 18.5547C37.6788 18.5363 37.8066 18.5224 37.9295 18.504C38.1772 18.47 38.4272 18.4577 38.6769 18.4672C39.0329 18.4592 39.389 18.4838 39.7409 18.5408C39.9917 18.5826 40.1279 18.6334 40.1279 18.6885C40.1279 18.7437 39.9917 18.7944 39.7452 18.8452C39.4987 18.8959 39.1432 18.9371 38.7156 19.0107C38.5 19.0475 38.2626 19.0741 38.0295 19.1375L37.6558 19.2206C37.5422 19.2416 37.4304 19.2724 37.3215 19.3125C37.1192 19.9942 36.9085 20.6753 36.6753 21.3519C36.5171 21.7102 36.4935 22.1177 36.6093 22.4933C36.7498 22.4749 36.8952 22.461 37.0332 22.447C37.3936 22.4147 37.737 22.3836 38.0355 22.3779C38.6411 22.364 39.1347 22.3506 39.4733 22.3456C39.8209 22.3456 40.0098 22.369 40.0183 22.4242C40.0268 22.4794 39.8463 22.5555 39.5126 22.6474Z" fill="black"/>
<path d="M52.2414 57.5158C51.7776 57.4236 51.3364 57.2342 50.9442 56.9591C50.8231 57.1842 50.6977 57.4144 50.5923 57.6497C50.5575 57.7228 50.5098 57.7884 50.4518 57.8431C50.4149 57.9344 50.3568 58.0146 50.2827 58.0765C50.2087 58.1384 50.1211 58.18 50.0279 58.1975C49.4078 58.3447 48.7398 58.3586 48.1105 58.5146C50.2477 58.7309 53.0396 58.578 54.5125 56.8798C55.438 55.7628 56.2983 54.5884 57.0887 53.3629C56.9071 53.5145 56.7327 53.6527 56.557 53.777C55.6294 54.385 54.5515 54.6938 53.4575 54.6648C53.4357 54.752 53.3833 54.8274 53.3108 54.8761C53.2384 54.9247 53.151 54.943 53.0663 54.9273C52.6424 54.8512 52.2112 54.8299 51.7824 54.8639C51.7637 55.0226 51.7342 55.1796 51.6939 55.3338C52.0865 55.354 52.4758 55.4189 52.8549 55.5272C53.2679 55.6331 53.0923 56.3009 52.6793 56.1949C52.273 56.0678 51.8492 56.0132 51.4257 56.0332C51.373 56.1391 51.3251 56.245 51.2676 56.3503C51.613 56.6009 52.0052 56.772 52.4183 56.8525C52.8349 56.9451 52.6545 57.6091 52.2414 57.5158Z" fill="black"/>
<path d="M48.3104 46.8409C48.6474 46.9899 48.998 47.1026 49.3569 47.177C49.8858 47.2642 50.4256 47.247 50.9485 47.1262C51.513 46.9954 52.066 46.8153 52.6018 46.5878C52.3777 46.5695 52.1579 46.5416 51.9356 46.5048C51.8269 46.5314 51.7134 46.5284 51.6061 46.4959C48.9063 45.7083 46.4972 43.8807 43.7665 43.2726C42.7975 43.0564 41.797 43.038 40.825 42.9048C40.6277 43.2252 40.3552 43.4873 40.0335 43.6658C39.5454 43.9194 39.2777 43.8408 39.251 43.7761C39.2117 43.6841 39.5102 43.5554 39.7834 43.2789C39.9312 43.1333 40.0597 42.9676 40.1655 42.7862C39.5155 42.6641 38.8935 42.4143 38.3323 42.05C38.0331 42.3487 37.7122 42.6296 37.4088 42.8921C38.904 44.2409 40.4647 45.5162 41.5814 47.2797C41.6162 47.3389 41.6429 47.4029 41.6608 47.4699C41.704 47.5325 41.7366 47.6024 41.7571 47.6766C41.9146 48.49 42.0087 49.3154 42.0387 50.1447C43.2874 50.652 44.5822 50.9779 45.854 51.3971C45.8892 51.4085 45.9231 51.4238 45.9552 51.4428C46.0519 51.4471 46.1464 51.4739 46.2319 51.5214C47.7148 52.3422 49.4007 52.6719 51.0665 52.4669C51.1515 52.4545 51.238 52.4628 51.3194 52.4912C51.4008 52.5196 51.4748 52.5673 51.5357 52.6306C51.5965 52.6939 51.6426 52.7711 51.6702 52.8561C51.6979 52.9411 51.7065 53.0316 51.6952 53.1207C51.6952 53.1296 51.7 53.1346 51.7 53.1435C53.4563 53.42 55.1908 53.4936 56.4789 51.9786C57.1451 51.1917 58.9456 49.5524 58.8093 48.3875C58.6688 47.2049 56.8659 46.4819 55.9296 46.5048C55.4857 46.5187 55.0545 46.546 54.6191 46.5739C54.1667 46.7578 53.6786 46.9791 53.1595 47.1953C52.4862 47.4922 51.7825 47.7069 51.0623 47.8352C50.4497 47.938 49.8229 47.8946 49.2285 47.7084C48.833 47.5786 48.4655 47.369 48.1469 47.0913C47.9404 46.8935 47.8483 46.7553 47.8744 46.714C47.9004 46.6728 48.0597 46.721 48.3104 46.8409ZM48.7592 48.0933C48.9172 48.1624 49.0801 48.2264 49.2382 48.3006C49.392 48.3875 49.5501 48.475 49.7088 48.5625C49.7214 48.5725 49.7345 48.5819 49.7481 48.5904L49.7614 48.5993L49.7832 48.6177L49.8359 48.6596L49.9371 48.7376L50.1484 48.9278C50.2756 49.0381 50.4034 49.1535 50.5306 49.2683C50.7508 49.4907 51.0243 49.6467 51.3221 49.7198C51.5164 49.646 51.6882 49.5187 51.8193 49.3514C51.9205 49.2455 52.0216 49.1301 52.153 49.0153C52.2278 48.9409 52.3122 48.8779 52.4037 48.8282C52.5418 48.7532 52.7009 48.7321 52.8525 48.7686C53.0358 48.8132 53.2036 48.9105 53.337 49.0495C53.4496 49.1723 53.5417 49.314 53.6095 49.4687C53.724 49.7357 53.7912 49.9703 53.8778 50.1542C53.9332 50.3088 54.0393 50.4378 54.177 50.5182C54.2445 50.5494 54.3152 50.5726 54.3877 50.5873C54.474 50.5988 54.5613 50.5988 54.6475 50.5873C54.6827 50.5778 54.7081 50.5778 54.7487 50.5689L54.8698 50.5271C54.9555 50.4996 55.0393 50.4659 55.1205 50.4262C55.2804 50.3473 55.4346 50.2564 55.582 50.1542C55.8561 49.9698 56.1163 49.7635 56.3602 49.5372C57.2838 48.709 57.649 48.0641 57.7144 48.092C57.807 48.1193 57.5478 48.9113 56.6679 49.8733C56.4283 50.1426 56.1665 50.3892 55.8854 50.6101C55.5407 50.9073 55.1341 51.1154 54.6984 51.2176C54.5737 51.2405 54.4465 51.2452 54.3205 51.2316C54.1768 51.2163 54.0361 51.1791 53.9026 51.1213C53.6323 50.9836 53.414 50.7549 53.2825 50.4719C53.1553 50.2183 53.0802 49.9747 52.9882 49.7813C52.8961 49.5879 52.8168 49.4687 52.7199 49.4313C52.6981 49.4452 52.6629 49.4947 52.623 49.5283C52.5394 49.6114 52.4413 49.7262 52.3371 49.8365C51.4493 50.7877 50.5257 50.2804 49.6682 49.5099C49.6639 49.5099 49.4968 49.3577 49.4968 49.3577L49.3212 49.2201C49.1891 49.1459 49.0529 49.0679 48.9209 48.9944C48.7888 48.9208 48.6399 48.8676 48.4969 48.8041C47.9363 48.5894 47.3599 48.4231 46.7734 48.307C45.6306 48.0768 44.5617 47.9265 43.6781 47.6627C42.9627 47.4853 42.2885 47.1597 41.6953 46.7052C41.5341 46.5838 41.3912 46.4378 41.2714 46.272C41.1878 46.1617 41.1502 46.097 41.1702 46.0818C41.1902 46.0666 41.2538 46.0862 41.3683 46.1604C41.5259 46.2713 41.6903 46.3711 41.8606 46.4591C42.469 46.785 43.1212 47.0117 43.7949 47.1313C44.6525 47.3158 45.7075 47.4078 46.8951 47.6056C47.529 47.7101 48.1528 47.8733 48.7592 48.0933Z" fill="black"/>
<path d="M56.15 64.4095C56.5562 64.0526 57.0469 63.8171 57.5702 63.7279C57.8603 63.6315 58.0317 63.2263 57.6495 63.1064C57.5634 63.0829 57.4831 63.0404 57.4141 62.9816C57.345 62.9229 57.2888 62.8493 57.2492 62.7659L57.0336 62.7931C55.8115 63.6632 54.5143 65.3297 55.5565 66.1769C56.2421 66.3754 57.8076 66.5776 58.1068 65.7717C57.5526 65.6797 56.9943 65.6448 56.4401 65.5649C55.9169 65.4819 55.8466 64.7501 56.15 64.4095Z" fill="black"/>
<path d="M36.9933 66.1217C35.3309 66.3754 34.5442 69.234 36.5003 69.7724C37.1865 69.9626 37.525 69.5612 37.6788 68.9715C37.7696 68.4762 37.7585 67.9663 37.6463 67.4758C37.5342 66.9852 37.3235 66.5254 37.0284 66.1268C37.0163 66.1268 37.006 66.1217 36.9933 66.1217Z" fill="black"/>
<path d="M55.0418 63.0651L54.4701 63.1476C54.2757 63.8517 54.2968 64.6019 54.5306 65.2928C54.7066 64.3902 55.1571 63.5715 55.8145 62.9592C55.5565 62.996 55.3016 63.0283 55.0418 63.0651Z" fill="black"/>
<path d="M35.7796 65.9606C35.0928 65.9136 34.4032 65.9777 33.7351 66.1509C33.0974 67.2048 32.8031 69.0419 33.6648 69.9994C34.2541 70.0045 34.8428 69.9766 35.432 69.9443C34.1439 68.9024 34.6144 66.9233 35.7796 65.9606Z" fill="black"/>
<path d="M29.491 67.0824C29.3044 66.9143 29.1179 66.7444 28.9211 66.5846L28.4741 66.2225L28.4336 66.8129C28.4105 67.1468 28.4105 67.4821 28.4336 67.816L28.4535 68.1027L28.7285 68.1103C28.8538 68.1103 28.9792 68.1147 29.1034 68.1147C29.3492 68.1147 29.5915 68.109 29.8301 68.0957L30.6404 68.0532L30.0015 67.5301C29.8259 67.3874 29.6587 67.2358 29.491 67.0824Z" fill="black"/>
<path d="M29.514 65.0766C29.494 65.0525 29.4764 65.0264 29.4613 64.9986C28.7195 65.0355 27.9761 65.0171 27.2368 64.9435C27.4011 65.3125 27.459 65.7238 27.4034 66.1268C27.352 66.3716 27.2395 66.5977 27.0774 66.7821C26.9152 66.9665 26.7092 67.1025 26.4804 67.1763C26.6518 67.5263 27.298 67.6918 28.0853 67.7609C28.0507 67.2165 28.0757 66.6697 28.1598 66.1312C28.1732 66.0801 28.1976 66.0329 28.2311 65.9933C28.2646 65.9536 28.3064 65.9226 28.3533 65.9026C28.4001 65.8825 28.4507 65.874 28.5011 65.8777C28.5516 65.8814 28.6006 65.8972 28.6443 65.9238C29.4661 66.4578 30.0511 67.3513 30.9789 67.6994C31.3702 67.6626 31.6645 67.6259 31.7832 67.6075C31.8098 67.603 31.8365 67.603 31.8625 67.5986C31.8758 67.5016 31.8934 67.4007 31.911 67.3037C31.3703 67.1993 30.8749 66.919 30.495 66.5028C30.1208 66.0621 29.8658 65.5326 29.514 65.0766Z" fill="black"/>
<path d="M62.4593 62.0011C62.0154 62.0753 61.5757 62.1488 61.1312 62.218C61.213 62.4502 61.224 62.7034 61.1626 62.9425C61.1012 63.1816 60.9705 63.3948 60.7884 63.5528C60.3452 63.9305 59.8168 64.1827 59.2538 64.2852V64.317C60.7315 64.7266 62.257 64.6486 63.7698 64.7608C63.8452 64.5681 63.906 64.3694 63.9515 64.1667C63.9601 64.1367 63.966 64.1059 63.9691 64.0747C63.7049 64.0751 63.4465 63.9934 63.2266 63.8401C62.9734 63.615 62.7726 63.3323 62.6396 63.0136C62.5066 62.6949 62.445 62.3486 62.4593 62.0011Z" fill="black"/>
<path d="M69.3009 63.6543C69.2535 63.6797 69.2003 63.6909 69.1471 63.6866C68.8417 63.689 68.5457 63.7974 68.3054 63.9948C68.0651 64.1921 67.894 64.4673 67.819 64.7773C67.6785 65.2472 67.6343 66.0069 68.2193 66.1724C68.521 66.2683 68.8435 66.2654 69.1435 66.1642C69.4436 66.063 69.7071 65.8683 69.8987 65.6062C69.9445 65.475 69.977 65.3392 69.9956 65.2009C69.9991 65.1781 70.0005 65.155 69.9998 65.1318C69.9829 64.8493 69.9124 64.5731 69.7924 64.3194C69.6724 64.0657 69.5053 63.8396 69.3009 63.6543Z" fill="black"/>
<path d="M60.0356 62.8851L60.1053 62.7583L60.2579 62.5985L60.1138 62.3803C60.0621 62.3049 60.001 62.2371 59.9321 62.1787L59.8237 62.0918L58.435 62.282L58.6809 62.6999C58.7383 62.7954 58.7839 62.8981 58.8165 63.0056L58.9013 63.2916L59.1793 63.2193C59.455 63.1525 59.7185 63.0396 59.9599 62.8851H60.0356Z" fill="black"/>
<path d="M68.7117 63.0467C67.8717 62.8115 67.0317 63.0835 66.1615 63.2211C66.1212 63.2632 66.0753 63.2989 66.0252 63.327C65.9685 63.4113 65.8967 63.4832 65.8138 63.5388C65.562 63.7224 65.3751 63.9879 65.2821 64.2941C64.992 65.4083 65.1895 66.6651 66.5133 66.7038C66.9046 66.7177 67.3884 66.7545 67.8675 66.7406C66.3329 65.9498 67.2122 63.4057 68.7117 63.0467Z" fill="black"/>
<path d="M25.1657 66.5206C25.1792 66.4047 25.2266 66.2959 25.3014 66.2093C25.3762 66.1227 25.4747 66.0624 25.5835 66.0367C25.6432 66.0027 25.7067 65.9765 25.7725 65.9587C25.8907 65.9381 26.0051 65.8976 26.111 65.8389C26.1151 65.8271 26.1166 65.8145 26.1153 65.8021C26.0908 65.6639 26.0463 65.5305 25.9832 65.4064C25.7198 65.3741 25.4557 65.3512 25.1875 65.3373C24.7999 65.5915 24.5008 65.9697 24.3345 66.4158C24.1683 66.862 24.1437 67.3523 24.2645 67.8142C24.3025 68.0587 24.387 68.2927 24.5129 68.5024C24.6387 68.7121 24.8035 68.8932 24.9974 69.0351C25.1912 69.177 25.4103 69.2767 25.6417 69.3284C25.873 69.3801 26.1119 69.3827 26.3442 69.3361C26.4589 69.2036 26.5336 69.0386 26.5592 68.8618C25.5744 68.4927 24.9367 67.7888 25.1657 66.5206Z" fill="black"/>
<path d="M66.7368 59.8247C66.9518 59.5134 66.9984 59.254 66.8748 59.0485C66.6483 58.6763 65.9876 58.7232 65.0659 58.9071L64.9411 58.9306C64.084 59.0533 63.2188 59.104 62.3539 59.0822C61.9215 59.0822 61.4934 59.0822 61.0785 59.1025C59.5645 59.1659 58.2854 59.2045 57.0294 59.1957C56.996 59.1894 56.9622 59.186 56.9282 59.1855H56.8374L56.7714 59.2489C56.352 59.6718 55.8967 60.0539 55.4112 60.3904C55.3755 60.4107 55.344 60.4272 55.3125 60.4436L55.2477 60.476L55.2132 60.5394C55.179 60.6047 55.1275 60.6583 55.065 60.6938C55.0025 60.7294 54.9316 60.7453 54.8607 60.7398C53.8851 60.7414 52.9105 60.8022 51.9416 60.9218C50.3154 61.1881 48.6576 61.16 47.0404 60.8387C46.9925 60.8288 46.947 60.8088 46.9066 60.7801C46.8663 60.7513 46.8318 60.7143 46.8054 60.6713L46.7533 60.6136C46.6549 60.5001 46.5692 60.3752 46.4978 60.2414L46.4069 60.0771L46.2337 60.1336C46.1788 60.1529 46.1214 60.1634 46.0635 60.1646H44.7445C44.7016 60.1644 44.6589 60.1587 44.6173 60.1475L44.5265 60.1253L44.4466 60.176C41.3543 62.1463 37.1108 62.3993 33.3638 62.6238C32.9345 62.6492 32.516 62.6745 32.1042 62.7018C31.8413 62.7189 31.5591 62.7424 31.2672 62.7652C29.3292 62.9256 26.9183 63.1248 25.3504 62.0867L25.1541 62.015L25.027 62.1786C24.9437 62.2921 24.8857 62.4235 24.857 62.5633C24.8283 62.7032 24.8297 62.8479 24.861 62.9871L24.8834 63.1032L24.9846 63.1552C26.2208 63.7244 27.5642 63.9931 28.9138 63.9409C30.0142 63.9409 31.1291 63.8261 32.1841 63.7177C32.9108 63.6428 33.6024 63.5718 34.2607 63.5382C35.6609 63.4665 37.0641 63.4057 38.4673 63.348C40.627 63.2541 42.8598 63.1577 45.0534 63.0201C49.0759 62.7608 53.0275 62.2192 56.362 61.7246C57.0609 61.6206 57.761 61.5229 58.4617 61.424C59.6026 61.2642 60.7818 61.0993 61.9409 60.9091C62.9705 60.741 63.8789 60.5736 64.7267 60.3961C64.8842 60.3697 65.0429 60.3519 65.2021 60.3428C65.7539 60.306 66.4424 60.2509 66.7368 59.8247Z" fill="black"/>
<path d="M33.322 65.1628L33.7036 65.0462L33.528 64.6714L33.4619 64.4012L30.4545 64.6213L30.7403 65.0753C30.8536 65.2567 30.9711 65.4323 31.0958 65.6055C31.3814 65.9819 31.7925 66.2311 32.2465 66.303L32.4778 66.3525L32.5802 66.1293C32.6823 65.8992 32.8054 65.6801 32.9478 65.4748L33.0132 65.3727C33.0327 65.3263 33.0622 65.2853 33.0994 65.2528C33.1366 65.2204 33.1805 65.1974 33.2276 65.1857C33.2615 65.1762 33.2881 65.1698 33.322 65.1628Z" fill="black"/>
<path d="M26.3926 43.466C26.5166 43.5383 26.6141 43.6519 26.6694 43.7888C26.6779 43.7976 26.6827 43.7976 26.6912 43.8072C27.4348 44.5435 28.2141 45.2395 29.0258 45.8922C29.692 46.2841 30.4993 46.7996 31.4004 47.2689C32.3295 47.7213 33.3065 48.0568 34.311 48.2683C35.1201 48.3786 35.6216 48.5029 35.6216 48.6133C35.6216 48.7236 35.1068 48.7883 34.2844 48.8162C33.2072 48.7612 32.1502 48.4891 31.1715 48.0146C31.5613 48.4534 31.8753 48.9598 32.0993 49.5112C32.3041 50.3377 32.6545 51.1169 33.1325 51.8086C33.2778 51.7719 33.4099 51.7579 33.5286 51.7351C33.7383 51.7164 33.9458 51.6763 34.1481 51.6152C34.3019 51.5518 34.3552 51.4954 34.3946 51.3667C34.4297 51.3115 34.4164 51.21 34.434 51.1365C34.4255 51.0445 34.4206 50.9462 34.4164 50.86L34.3855 50.4548L34.7241 50.4503C35.2521 50.4459 35.7094 50.4598 36.117 50.4408C36.4584 50.436 36.798 50.3865 37.1277 50.2937C37.6383 50.1555 37.9368 49.8498 37.9853 49.9348C38.0119 49.9621 37.972 50.0496 37.8708 50.1922C37.711 50.402 37.5062 50.5693 37.2731 50.6805C36.9243 50.8523 36.552 50.9657 36.1697 51.0166C35.8438 51.0673 35.4835 51.0946 35.1189 51.1181C35.1228 51.2718 35.1048 51.4252 35.0656 51.5734C35.0232 51.7457 34.9398 51.9041 34.8234 52.0338C34.7606 52.0947 34.6945 52.1516 34.6253 52.2043L34.4103 52.3198C34.1624 52.4096 33.9057 52.4698 33.6448 52.4992C33.6878 52.5621 33.7205 52.6319 33.7417 52.7059C34.0494 52.7662 34.3619 52.8118 34.6611 52.8486C35.3993 52.9361 36.0588 53.0148 36.6172 53.0788C37.7255 53.2056 38.4243 53.3325 38.4243 53.4472C38.4201 53.5443 37.7255 53.6178 36.5912 53.6267C36.0237 53.6318 35.3509 53.6178 34.5926 53.5633C34.2977 53.5398 33.987 53.5081 33.66 53.4574C33.6608 53.6316 33.7 53.8032 33.7744 53.959C33.8264 54.0674 33.8531 54.1871 33.8523 54.3083C33.8516 54.4295 33.8235 54.5489 33.7702 54.6565C33.7369 54.7708 33.6848 54.8781 33.6164 54.9736C33.3878 55.29 33.2314 55.6571 33.1591 56.0466C36.1224 55.531 39.1741 55.7149 42.0932 54.9736C41.4954 53.9152 41.324 52.5201 40.7432 51.5391C40.4042 51.8598 40.022 52.1267 39.6089 52.3312C39.2663 52.4336 38.9093 52.4726 38.5539 52.4466C37.978 52.4003 37.657 52.2716 37.657 52.1796C37.657 52.0877 38.0041 52.0319 38.5273 51.9399C39.034 51.7939 39.514 51.5605 39.9475 51.2493C41.0866 50.6875 40.7699 50.1815 40.6379 48.9614C40.6316 48.9622 40.6253 48.9603 40.6203 48.9563C40.6118 48.9474 40.6161 48.9151 40.6294 48.8739C40.601 48.5953 40.551 48.3196 40.4798 48.0495C40.4683 48.0261 40.4534 48.0047 40.4356 47.9861C40.3302 47.8111 40.2158 47.6449 40.0971 47.4788C39.6455 47.1944 39.1667 46.9606 38.6684 46.7812C38.0174 46.565 37.2307 46.3811 36.4216 46.1281C35.6432 45.9025 34.89 45.5907 34.1748 45.1978C33.5659 44.8675 33.039 44.3931 32.6359 43.8122C32.4842 43.5835 32.3601 43.336 32.2665 43.0754C32.2106 42.8719 32.1701 42.6641 32.1454 42.4539C32.1454 42.1318 32.1629 41.9466 32.2156 41.9428C32.2683 41.939 32.3367 42.0994 32.4312 42.4076C32.4839 42.5598 32.5717 42.7114 32.6462 42.9003C32.7651 43.104 32.9004 43.2967 33.0507 43.4761C33.4583 43.9345 33.9486 44.3037 34.4933 44.5624C35.1844 44.8961 35.9004 45.1701 36.6342 45.3817C37.4257 45.6303 38.1906 45.8256 38.9034 46.1091C38.9076 46.1091 38.9119 46.1141 38.9161 46.1141C37.3464 44.5288 35.4562 43.2916 34.1106 41.4456C32.4003 39.0994 31.0546 35.9116 28.9441 33.9692C28.8674 33.8984 28.8073 33.8101 28.7685 33.7111C28.7551 33.7111 28.7418 33.7156 28.7291 33.7156C28.5753 33.7022 28.4166 33.6927 28.2585 33.6788C28.1005 33.6648 27.9242 33.6376 27.7528 33.6192C27.4228 33.5729 27.08 33.5222 26.7281 33.4765C26.1522 33.4029 25.6071 33.3243 25.093 33.2603C25.2068 33.4397 25.3304 33.6236 25.4794 33.8265C25.661 34.0802 25.8579 34.3833 26.0559 34.6782C26.2539 34.973 26.4296 35.2996 26.6228 35.6294C27.2121 36.7435 27.859 37.8232 28.5607 38.8635L28.9344 39.379C29.0616 39.5261 29.1718 39.6555 29.2554 39.7658C29.4268 39.9821 29.5055 40.1203 29.4704 40.1615C29.4352 40.2027 29.2947 40.1387 29.0658 39.9916C28.952 39.9174 28.8157 39.821 28.6619 39.7056C28.5165 39.5724 28.3536 39.4113 28.1737 39.2319C27.3243 38.2617 26.5904 37.1873 25.9881 36.0321C25.8064 35.7099 25.6193 35.3979 25.443 35.0973C25.2668 34.7968 25.0869 34.5127 24.9198 34.2413C24.6973 33.9106 24.5101 33.5555 24.3614 33.1823C23.926 33.136 23.5263 33.0808 23.1702 33.0554C22.2424 32.992 21.6664 32.8988 21.6664 32.7929C21.6664 32.687 22.2381 32.5811 23.1653 32.5031C23.4778 32.4796 23.8382 32.4847 24.2294 32.4936C24.2341 32.0802 24.3132 31.6714 24.4625 31.2887C24.5594 31.0218 24.6388 30.8835 24.6915 30.8975C24.7442 30.9114 24.7575 31.0681 24.7441 31.3483C24.7125 31.7161 24.7139 32.0862 24.7484 32.4536C24.7526 32.472 24.7617 32.4904 24.766 32.5088H24.8235C25.4473 32.5412 26.1201 32.6191 26.8323 32.7067C27.1842 32.7618 27.5269 32.817 27.857 32.8677C27.8746 32.8722 27.8921 32.8722 27.9139 32.8772C27.7865 32.823 27.6656 32.7534 27.5536 32.6699C27.203 32.4339 26.9083 32.1175 26.6918 31.7447C26.5598 31.4866 26.5162 31.33 26.5555 31.3008C26.5949 31.2716 26.7269 31.3693 26.925 31.5678C27.1904 31.8182 27.4878 32.0289 27.8086 32.1936C28.0251 32.3002 28.2542 32.3761 28.4899 32.4194C28.7619 32.463 29.0379 32.4739 29.3123 32.4517C29.9342 32.3786 30.542 32.2076 31.1152 31.9444C31.911 31.3458 32.6492 30.4942 33.3087 30.011C34.8476 28.8784 36.5494 27.8841 37.6401 26.2309C37.6933 26.1512 37.7602 26.0825 37.8375 26.0286L37.8508 26.0147C37.2616 25.2366 36.9364 24.2835 36.2726 23.501C36.2199 23.4375 36.1799 23.3811 36.1363 23.3259C36.1036 23.3314 36.0713 23.339 36.0394 23.3488C35.6761 23.4413 35.2655 23.584 34.8524 23.7292C34.4394 23.8745 33.9991 24.0102 33.5595 24.1573C32.6583 24.4242 31.8032 24.6868 31.0092 24.8707C30.2092 25.0273 29.4952 25.1979 28.8859 25.2619C28.2876 25.3082 27.8086 25.3355 27.4658 25.3355C26.9995 25.8054 26.5816 26.2429 26.2212 26.6298C25.7289 27.1269 25.351 27.5734 25.0706 27.8587C24.7902 28.1441 24.6224 28.2868 24.5825 28.25C24.5425 28.2132 24.64 28.0109 24.8465 27.6653C25.1428 27.1776 25.4704 26.7115 25.827 26.2702C26.9819 24.7916 28.2751 23.4376 29.6872 22.2282C29.8852 22.0488 30.0784 21.8693 30.2673 21.6943C30.4563 21.5193 30.624 21.3303 30.7997 21.1553C30.8899 21.0684 30.9737 20.9745 31.0504 20.8744C30.7954 20.9302 30.6459 20.9435 30.6265 20.8883C30.5998 20.8103 30.9166 20.5567 31.5452 20.2764C31.6027 20.2022 31.6596 20.1286 31.7123 20.0506C32.2707 19.3049 32.737 18.5959 33.1985 18.0246C33.5494 17.5653 33.9525 17.1527 34.3988 16.7956C34.7416 16.5654 34.9354 16.469 34.9657 16.5147C34.996 16.5604 34.8561 16.7405 34.592 17.022C34.2413 17.4459 33.9155 17.8916 33.6164 18.3569C33.3305 18.7849 33.0271 19.3005 32.6753 19.8579C33.4183 19.6277 34.3062 19.4064 35.2473 19.1673C35.5725 19.0893 35.8808 18.9923 36.1793 18.9048C36.4434 18.8312 36.6941 18.7621 36.94 18.6974C37.2525 17.478 37.5159 16.2439 37.8896 15.0423C37.9056 14.9912 37.9327 14.9446 37.9687 14.9062C38.0046 14.8679 38.0485 14.8386 38.097 14.8209C38.1455 14.8031 38.1972 14.7972 38.2482 14.8037C38.2992 14.8102 38.3481 14.8289 38.391 14.8584C38.4001 14.8584 38.4001 14.8533 38.4044 14.8584C39.7379 15.1453 40.9908 15.7484 42.0671 16.6212C41.8894 16.0054 41.6255 15.4205 41.2841 14.8856C40.0341 13.0428 38.4207 11.5026 36.553 10.3693C36.5172 10.5146 36.4733 10.6575 36.4216 10.7974C36.4407 10.9477 36.4715 11.0962 36.5136 11.2413C36.6717 11.9642 37.393 12.4753 38.1361 13.0644C38.3384 13.2255 38.5406 13.396 38.7338 13.5806L39.3013 14.1094L38.5491 14.2432C38.0483 14.3308 37.5862 14.3701 37.1514 14.4271C36.751 14.4739 36.3552 14.5571 35.9686 14.6757C35.3172 14.9561 34.6916 15.2983 34.0997 15.6979C33.6747 15.9676 33.2239 16.1897 32.7546 16.3606C32.4245 16.4621 32.2313 16.4874 32.2138 16.4392C32.1962 16.3911 32.3543 16.2782 32.6492 16.0987C32.9302 15.9085 33.3305 15.6333 33.8187 15.2464C34.4006 14.7594 35.0369 14.3482 35.7136 14.0219C36.3198 13.8027 36.9485 13.6591 37.5868 13.5939C37.2384 13.331 36.9065 13.0451 36.593 12.7378C36.4217 12.5588 36.2672 12.363 36.1315 12.1531L36.1048 12.1164L36.0915 12.0929L36.0655 12.0422C36.0606 12.0333 36.0255 11.9547 36.0255 11.9547L35.9601 11.8031C35.945 11.7706 35.933 11.7366 35.9244 11.7016C35.6737 12.0554 35.3778 12.3714 35.045 12.6408C35.0025 12.7069 34.9506 12.7659 34.8912 12.8158C33.7702 13.7226 32.5214 14.4411 31.352 15.2743C30.752 15.6875 30.1849 16.1509 29.6563 16.6599C29.322 16.9871 28.7812 17.9859 28.3106 18.0366C26.9916 20.0069 25.7168 22.019 24.2439 23.8707C22.6651 25.8453 20.2644 27.4852 19.0732 29.7446C19.0696 29.7838 19.0623 29.8224 19.0514 29.86C18.4172 31.6118 18.4187 33.5464 19.0556 35.2971C19.6358 36.9084 20.735 37.1431 21.7022 38.2991C22.4631 39.0917 23.1264 39.9809 23.6765 40.9459C24.3656 42.3842 25.1214 42.7063 26.3926 43.466ZM25.0118 38.1348C25.0645 38.126 25.1439 38.2503 25.2401 38.4849C25.2996 38.6166 25.3719 38.7415 25.4557 38.8577C25.5505 39.0173 25.6579 39.1684 25.7767 39.3093C26.5197 40.1392 27.3771 40.8482 28.3203 41.4127C29.4243 42.1267 30.466 42.7203 31.2091 43.1946C31.9522 43.6689 32.3791 44.0323 32.3258 44.1198C32.2725 44.2073 31.7723 44.0278 30.9674 43.6829C29.916 43.2314 28.9001 42.6941 27.9291 42.076C26.9067 41.4709 26.0265 40.6342 25.3528 39.627C25.1513 39.3031 25.0189 38.9376 24.9646 38.5553C24.9501 38.2959 24.9646 38.1488 25.0118 38.1348ZM24.3965 29.7237C24.8965 29.5816 25.3883 29.4095 25.8694 29.2081C26.4144 28.9735 26.9988 28.6926 27.6105 28.3705C28.8284 27.7116 29.9185 27.0578 30.7452 26.6393C31.5676 26.2112 32.1084 26.0178 32.1611 26.1098C32.2138 26.2017 31.7565 26.5702 31.0104 27.1085C30.0319 27.8281 29.0097 28.4804 27.9503 29.061C27.3541 29.3801 26.7368 29.6539 26.1031 29.8803C25.5818 30.0636 25.0441 30.1911 24.4983 30.2608C23.5578 30.3756 22.9776 30.2285 22.9842 30.134C22.9848 30.0186 23.5432 29.9634 24.3965 29.7237Z" fill="black"/>
<path d="M23.5874 67.7381C23.5227 67.315 23.5425 66.8824 23.6453 66.4677C23.7482 66.053 23.932 65.665 24.1852 65.3284C23.7003 65.3441 23.2183 65.4136 22.7474 65.5357C22.0879 66.6772 21.5162 68.3627 22.4925 69.4674C23.1603 69.4771 23.8285 69.4893 24.497 69.5041C23.9824 69.0648 23.6553 68.4297 23.5874 67.7381Z" fill="black"/>
<path d="M22.3168 24.1117C22.6112 23.7616 22.897 23.4027 23.1786 23.0438C22.7746 23.3627 22.3547 23.659 21.9208 23.9316C21.087 24.4374 20.1925 24.8245 19.2609 25.0825C18.8518 25.187 18.4358 25.2593 18.0164 25.2988C17.6512 25.339 17.2834 25.3451 16.9172 25.3171C16.6114 25.3028 16.3075 25.2603 16.0088 25.1903C15.7876 25.1529 15.5708 25.0912 15.362 25.0064C15.015 24.8726 14.8303 24.7762 14.8436 24.7255C14.8569 24.6748 15.0634 24.6703 15.4238 24.7115C15.6408 24.7446 15.8597 24.7616 16.079 24.7623C16.3585 24.7802 16.6388 24.7816 16.9184 24.7667C17.259 24.7547 17.5984 24.7179 17.934 24.6564C18.3225 24.5927 18.7068 24.5035 19.0847 24.3894C19.9432 24.109 20.7691 23.7291 21.5471 23.2568C22.3231 22.7673 23.0609 22.2141 23.7534 21.6024C24.3196 21.0943 24.8583 20.5534 25.3667 19.9822C25.3976 19.9454 25.4236 19.9188 25.4545 19.8852C26.2067 18.7805 26.9407 17.6657 27.6953 16.5661C27.7698 16.2852 27.8491 16.0138 27.9375 15.7373C27.8164 15.8476 27.6911 15.9535 27.5639 16.0594C26.9493 16.5439 26.2875 16.9591 25.5896 17.2979C24.8874 17.6261 24.1553 17.8791 23.4045 18.0532C22.7913 18.1875 22.1664 18.2553 21.5398 18.2554C20.4673 18.2466 19.852 18.0348 19.852 17.9384C19.852 17.8192 20.5182 17.8375 21.5096 17.7082C22.097 17.6321 22.6788 17.5137 23.2507 17.3537C23.945 17.1537 24.624 16.8993 25.2819 16.5927C25.9348 16.271 26.5638 15.8986 27.1636 15.4786C27.5819 15.1751 27.984 14.8478 28.3681 14.4982C28.4033 14.3967 28.4432 14.2959 28.4784 14.1945C28.1105 14.3124 27.7287 14.3764 27.344 14.3847C26.8645 14.3924 26.3852 14.36 25.9106 14.2877C25.1148 14.1685 24.6357 14.0714 24.6309 13.9655C24.626 13.8596 25.1366 13.7582 25.9324 13.7398C26.3327 13.7214 26.8032 13.7214 27.2998 13.6662C27.8159 13.6329 28.3187 13.4813 28.7727 13.2223C28.9875 13.0824 29.1804 12.9085 29.3444 12.7068C29.3581 12.689 29.3729 12.672 29.3886 12.656V12.6573H29.3928L29.4455 12.5654L29.5666 12.3859C29.6417 12.2661 29.7162 12.1462 29.7907 12.0314C29.7955 12.0264 29.7987 12.02 29.7998 12.013C29.9669 11.1594 30.2909 10.3479 30.7536 9.62362C29.2723 8.61979 28.4771 6.97548 27.593 5.40601C26.5043 5.88368 25.3899 6.29425 24.2554 6.63559C24.1197 6.6788 23.9741 6.67231 23.8424 6.6172C23.2883 6.56647 22.765 6.3775 22.2242 6.28555C22.2109 6.33628 22.2066 6.38701 22.1933 6.44218C21.923 7.38952 21.582 8.31312 21.1734 9.20446C20.9864 9.66203 20.865 10.146 20.8131 10.6408C20.7909 11.0211 20.8605 11.4012 21.0154 11.7461C21.0899 11.8887 21.1734 12.008 21.2352 12.1323C21.297 12.2565 21.4066 12.3441 21.4593 12.4316C21.5865 12.6021 21.641 12.7169 21.6089 12.7588C21.5768 12.8006 21.4551 12.7632 21.2746 12.6618C21.1596 12.6054 21.0518 12.5342 20.9536 12.45C20.8194 12.3204 20.6916 12.1837 20.5709 12.0403C20.2878 11.6264 20.1328 11.1315 20.1269 10.6224C20.1326 10.2572 20.1858 9.89451 20.285 9.54436C20.1319 9.67924 19.9687 9.80097 19.7969 9.90835C19.2741 10.2476 18.6982 10.4876 18.0957 10.6173C16.9341 10.8754 15.7267 10.7893 14.6092 10.3687C14.6001 10.4099 14.5959 10.4467 14.5868 10.4835C14.6016 10.5747 14.5941 10.6682 14.565 10.7556C14.4296 11.1996 14.1434 11.5764 13.7607 11.8146C13.7631 12.6953 13.4862 13.552 12.9734 14.2503C13.0197 14.3242 13.051 14.4073 13.0655 14.4944C13.2551 15.5902 13.8261 16.672 13.9582 17.7919C13.9891 16.6787 14.0964 15.5693 14.2791 14.4722C14.4857 13.4043 14.8769 12.8235 14.9562 12.8748C15.0574 12.9256 14.8642 13.5286 14.7982 14.5508C14.7103 15.5775 14.7539 17.0094 14.6528 18.6347C14.6143 19.4153 14.486 20.1881 14.2707 20.9366C14.0884 21.5743 13.7625 22.1569 13.3205 22.6354C13.0148 22.9511 12.6408 23.1847 12.2304 23.3165C11.9487 23.3995 11.7864 23.3945 11.7689 23.3488C11.7513 23.3031 11.89 23.1966 12.1159 23.04C12.4247 22.8294 12.6993 22.5684 12.9292 22.267C13.2559 21.8094 13.4882 21.2858 13.6112 20.7292C13.7038 20.3554 13.7728 19.9755 13.8177 19.5922C13.6755 20.2656 13.3449 20.8794 12.8681 21.3551C11.5315 22.6233 9.10842 21.9398 7.70158 20.9683C6.47945 22.2575 3.60824 22.064 2.54418 20.8072C2.45602 20.7019 2.39808 20.5726 2.37703 20.4343V20.4254C2.27249 19.7768 2.10006 19.1423 1.86286 18.5332C1.35233 19.7672 0.789714 21.2124 1.49344 22.4693C1.88762 23.1927 2.52598 23.7356 3.28302 23.9912C3.94583 24.2077 4.63023 24.3437 5.32273 24.3964C5.21059 24.2594 5.11611 24.1076 5.04173 23.9449C4.97181 23.8086 4.93695 23.6556 4.94059 23.501C4.94059 23.3907 4.96239 23.3171 5.0066 23.2987C5.05081 23.2803 5.12046 23.3031 5.20403 23.3767C5.2876 23.4369 5.37118 23.5929 5.49896 23.6716C5.80326 23.9493 6.12319 24.2076 6.45704 24.4452C6.46189 24.4452 6.46613 24.4497 6.47037 24.4497C6.60239 24.4541 6.73442 24.4541 6.86644 24.4541C6.68331 24.1492 6.54949 23.8147 6.47037 23.4642C6.42676 23.0317 6.44857 22.7508 6.54546 22.7185C6.64236 22.6861 6.80043 22.9208 6.97606 23.3171C7.21718 23.7429 7.51148 24.1332 7.85117 24.4776C7.94322 24.5606 8.03285 24.6431 8.13278 24.7261C9.64092 25.2609 11.1216 25.877 12.5689 26.5721C13.9315 27.1265 15.3888 27.3797 16.8494 27.3159C16.9781 27.2339 17.1289 27.1981 17.2788 27.2139C17.4288 27.2297 17.5697 27.2962 17.6803 27.4034C17.9888 27.6682 18.3813 27.8013 18.7795 27.7763C19.8369 26.4548 21.2171 25.4237 22.3168 24.1117ZM18.3634 12.2984C18.4688 12.2477 18.6535 12.6941 19.0181 13.2141C19.2403 13.5244 19.4923 13.81 19.7702 14.0664C20.1177 14.3683 20.4949 14.6306 20.8955 14.8489C21.6566 15.233 22.4601 15.5175 23.2876 15.6961C23.9338 15.8432 24.3517 15.9263 24.3517 16.0411C24.3559 16.1381 23.9278 16.2529 23.2259 16.2389C22.2981 16.2146 21.3868 15.9764 20.5569 15.5414C20.0948 15.2901 19.6712 14.9678 19.3003 14.5851C19.0015 14.263 18.7538 13.8931 18.5663 13.4893C18.258 12.7721 18.2847 12.3352 18.3634 12.2984Z" fill="black"/>
</svg>
