<svg width="70" height="70" viewBox="0 0 70 70" fill="none" xmlns="http://www.w3.org/2000/svg">
<path d="M24.2367 31.7182C24.1306 31.7094 24.0289 31.673 23.9426 31.6128C23.8934 31.6432 23.8403 31.6673 23.7845 31.6843C23.6467 31.725 23.5028 31.7437 23.3587 31.7394C23.2974 31.8921 23.1945 32.0262 23.0608 32.1276C22.9898 32.1815 22.9076 32.2203 22.8197 32.2412C22.7318 32.2621 22.6403 32.2646 22.5513 32.2487C22.5421 32.2479 22.5332 32.245 22.5255 32.2402C22.4424 32.3584 22.3531 32.4724 22.2578 32.5817C22.0706 32.7938 21.865 32.9901 21.643 33.1685C21.3877 33.3856 21.0931 33.5558 20.7739 33.6705C21.0592 34.8477 21.7438 36.447 22.7799 37.0011C23.719 37.5074 24.8773 35.4188 25.3623 34.1907L25.3711 34.0853C25.3887 33.7268 25.4108 33.3847 25.4341 33.0601C25.4429 32.9253 25.4517 32.7945 25.4605 32.6677C25.4214 32.6743 25.3818 32.6786 25.3421 32.6804C25.0877 32.6831 24.8412 32.5958 24.6493 32.4352C24.441 32.2407 24.2975 31.9912 24.2367 31.7182Z" fill="black"/>
<path d="M18.4001 42.8957C18.6879 42.9401 18.9813 42.9387 19.2686 42.8914C19.387 41.8153 19.7095 40.7229 20.7563 40.1955C22.7403 39.1987 24.7747 39.0219 26.971 38.8868C27.0018 38.8868 27.0195 38.8953 27.0459 38.8953C27.3622 38.4782 27.7815 38.1434 28.2659 37.921C29.8588 37.1337 34.3968 36.0728 32.6118 33.7602C31.9292 34.4649 31.1824 35.1096 30.3803 35.6864C29.8193 36.0872 29.2093 36.4201 28.5638 36.6778C28.2237 36.8217 27.867 36.9266 27.5013 36.9902C27.2733 37.0284 27.1681 37.0199 27.1549 36.9775C27.1417 36.9351 27.2179 36.8637 27.4182 36.7541C27.6184 36.6444 27.9271 36.5118 28.3629 36.2726C28.9443 35.9663 29.4978 35.6135 30.0175 35.2177C30.4705 34.8746 30.9028 34.507 31.3125 34.1168C31.0741 34.2923 30.8048 34.4252 30.5176 34.5092C30.2756 34.5763 30.0222 34.5969 29.7719 34.5698C29.3681 34.5153 29.205 34.4093 29.205 34.376C29.205 34.3294 29.4286 34.3633 29.7757 34.3421C30.2899 34.2958 30.7689 34.0708 31.1229 33.7093C31.3748 33.4895 31.6268 33.203 31.9417 32.8948L32.1829 32.6629C32.2755 32.5866 32.3675 32.5109 32.4638 32.4346C32.6351 32.2874 32.8455 32.1439 33.0609 31.9919C33.0741 31.9834 33.0874 31.9707 33.1006 31.9622C33.1342 31.888 33.1634 31.812 33.1881 31.7345C33.297 31.3953 33.2893 31.0313 33.1661 30.6966C33.0787 30.4596 32.9351 30.2454 32.7468 30.0709C32.5584 29.8965 32.3305 29.7665 32.0809 29.6914C31.9228 29.7253 31.766 29.7592 31.611 29.7883C30.4773 30.0081 29.4475 30.1177 28.5525 30.2122L28.3856 30.2291L28.2892 30.2376L28.2055 30.2418C28.0959 30.2503 27.9907 30.2545 27.8855 30.263C27.8435 30.2651 27.8015 30.2651 27.7595 30.263C27.7783 30.2926 27.7945 30.3236 27.808 30.3557C27.9457 30.6776 27.9793 31.0319 27.9044 31.3724C27.8564 31.6206 27.7933 31.8659 27.7154 32.107C27.5856 32.5728 27.3938 33.0206 27.1448 33.4392C26.9344 33.7788 26.6536 34.0732 26.3197 34.3039C25.9547 35.2629 25.4315 36.159 24.7703 36.9581C24.3099 37.5364 23.6599 38.3255 22.7869 37.9833C22.3738 37.8151 21.9995 37.57 21.6853 37.2621C21.6324 37.3463 21.5795 37.4226 21.5316 37.4898C21.4057 37.6715 21.303 37.8023 21.2243 37.9034C21.0706 38.102 20.9522 38.1693 20.869 38.1456C20.7859 38.122 20.7431 37.9979 20.8029 37.7151C20.9082 37.3861 21.051 37.0692 21.2287 36.7704C20.9722 36.4443 20.7488 36.0953 20.5617 35.7282C20.2789 36.1344 20.0696 36.5836 19.9426 37.0568C19.7933 37.5843 19.7145 38.0148 19.6528 38.3485C19.5344 39.011 19.4639 39.2726 19.3681 39.2683C19.2844 39.2683 19.188 39.0067 19.1924 38.3103C19.1941 37.8406 19.2485 37.3724 19.3549 36.9139C19.4923 36.2365 19.8029 35.6026 20.2587 35.0694C20.1444 34.7894 20.0462 34.5035 19.9646 34.2131C17.6827 36.378 17.3054 39.5088 17.0377 42.5893C17.4781 42.7413 17.9352 42.8441 18.4001 42.8957Z" fill="black"/>
<path d="M32.8871 46.7864C32.7951 46.7296 32.689 46.6974 32.5797 46.6932C32.3148 46.6663 32.047 46.6868 31.7899 46.7537C31.5487 46.8088 31.3074 46.893 31.0788 46.9687L30.7412 47.0825C30.6137 47.1265 30.4833 47.1619 30.3507 47.1885C30.2802 47.2012 30.2191 47.2133 30.1485 47.2303C29.8588 47.9097 29.5344 48.5765 29.183 49.2389C29.1653 49.2771 29.1477 49.3152 29.1263 49.3528C29.2523 49.3189 29.3675 49.2922 29.4815 49.2601L29.5999 49.2305C29.668 49.213 29.737 49.1989 29.8065 49.1881C29.9558 49.159 30.1 49.1336 30.2474 49.1081C30.265 49.2093 30.2827 49.3025 30.3003 49.4037C30.2959 49.3909 30.2959 49.3994 30.3003 49.4206C30.3179 49.526 30.3356 49.6313 30.3532 49.7325C30.3756 49.7539 30.3966 49.7765 30.4162 49.8003L30.4206 49.8173C30.4206 49.83 30.4294 49.8342 30.4294 49.8427C30.4309 49.8521 30.4356 49.8608 30.4427 49.8675C30.4471 49.876 30.4867 49.893 30.5686 49.8845C30.6567 49.8768 30.7423 49.8525 30.8206 49.813C30.9127 49.7855 31 49.7447 31.0794 49.6919C31.4064 49.4626 31.6775 49.1675 31.8737 48.8272C32.0972 48.4983 32.2818 48.1477 32.4922 47.8189C32.5451 47.7347 32.5973 47.6542 32.6503 47.5767C32.6899 47.5131 32.729 47.4501 32.7643 47.3908C32.7485 47.2951 32.7554 47.1973 32.7843 47.1045C32.8131 47.0118 32.8633 46.9264 32.9312 46.8548C32.9226 46.8289 32.9074 46.8054 32.8871 46.7864Z" fill="black"/>
<path d="M46.3827 31.8532C46.3915 31.8024 46.3915 31.7642 46.4047 31.7012L46.4526 31.5026C46.5085 31.3433 46.5981 31.1969 46.7159 31.0727C46.775 31.0109 46.8397 30.9544 46.9092 30.9037L47.0982 30.7983L47.1946 30.7517L47.2431 30.7263L47.3218 30.7009L47.4578 30.6591C47.9491 30.524 48.3925 30.5452 48.5771 30.4562C48.6212 30.4356 48.6734 30.4229 48.6955 30.3957C48.7109 30.3833 48.7271 30.372 48.744 30.3617C48.7526 30.3392 48.7659 30.3186 48.783 30.3012L48.8051 30.2715L48.8139 30.2588C48.8183 30.2546 48.8712 30.1449 48.8712 30.1449C48.8547 30.1289 48.8353 30.116 48.8139 30.1068C48.6981 30.0542 48.5732 30.0228 48.4454 30.0141C48.3637 30.0085 48.2817 30.0071 48.1998 30.0099L48.1368 30.0141H48.1148L47.9611 30.0432C47.7607 30.0722 47.5639 30.1203 47.3734 30.1867L46.8204 30.3811L46.5055 30.4907L46.1503 30.5749C46.0243 30.6003 45.9128 30.6355 45.7856 30.6512L45.4745 30.6851C45.2257 30.701 44.9759 30.6953 44.7281 30.6682C44.2769 30.6164 43.8332 30.5159 43.4054 30.3684C41.8252 29.7628 40.4515 29.1191 39.0557 28.7334C37.819 28.2884 36.4614 28.2617 35.2068 28.6577C34.9082 28.7715 34.6015 28.9066 34.3074 29.0247C34.0132 29.1427 33.6838 29.2481 33.3815 29.3541C33.2555 29.3874 33.1296 29.4213 33.008 29.4552C33.0853 29.5154 33.1587 29.5801 33.2278 29.649C33.4725 29.8939 33.6517 30.1923 33.7499 30.5186C33.8495 30.8457 33.8556 31.1925 33.7676 31.5226C33.8306 31.2804 34.9744 30.6197 35.2112 30.4175C35.9399 29.8052 36.7606 30.1752 37.6386 30.3751C37.9233 30.4386 38.2174 30.5016 38.516 30.5652L38.9682 30.6536L39.0778 30.6748L39.1307 30.6833C39.1219 30.6227 39.1395 30.6833 39.1351 30.6833H39.0091L39.2989 30.696C39.4563 30.7002 39.7026 30.7208 39.8512 30.7124C39.9999 30.7039 40.1454 30.6918 40.2921 30.6833C40.6394 30.6521 40.9883 30.6407 41.337 30.6494L41.6224 30.6706L41.6923 30.6833C41.7055 30.6833 41.7496 30.6791 41.7496 30.6791H41.7974L41.9234 30.7039C42.127 30.7483 42.3255 30.812 42.5161 30.894C42.8523 31.0425 43.1804 31.2072 43.4993 31.3876C44.0701 31.7453 44.6811 32.0399 45.3208 32.2656C45.5607 32.3454 45.8212 32.3469 46.0621 32.2699L46.1327 32.2444L46.1956 32.1936L46.2662 32.1475C46.2706 32.1433 46.2926 32.1179 46.2926 32.1179C46.3204 32.0878 46.3453 32.0554 46.367 32.021C46.3641 32.0195 46.3607 32.019 46.3574 32.0197C46.3542 32.0203 46.3513 32.0221 46.3493 32.0246C46.3537 32.0125 46.3581 31.9786 46.3625 31.9641C46.367 31.9495 46.3739 31.9077 46.3827 31.8532Z" fill="black"/>
<path d="M67.3042 13.409C66.2296 11.2932 64.7984 9.36286 63.0685 7.69614C62.2038 6.88164 61.28 6.12722 60.3041 5.4386C59.3176 4.76906 58.2867 4.1622 57.2179 3.62191C52.9138 1.58436 48.2274 0.400197 43.4376 0.139929C41.0899 -0.0259656 38.7335 -0.0443735 36.3833 0.0848232C35.2112 0.156885 34.075 0.236819 32.9028 0.367621C32.3498 0.418488 31.7691 0.528095 31.2022 0.60379C30.6354 0.679486 30.0616 0.768503 29.5017 0.882349C27.2612 1.27371 25.0467 1.79237 22.8701 2.43562C20.7358 3.06625 18.6383 3.80671 16.5868 4.65379C16.0772 4.87301 15.5727 5.09222 15.0638 5.31204L14.6859 5.47615L14.3212 5.64086C14.0623 5.76197 13.8079 5.87703 13.549 5.983C12.5173 6.42143 11.4819 6.8096 10.4628 7.18928C8.45811 7.89341 6.50388 8.72382 4.61282 9.67512C3.72724 10.1302 2.89705 10.6786 2.13754 11.3101L1.59776 11.8206L1.58454 11.8376L1.55808 11.8715L1.5014 11.9436L1.39118 12.0822C1.31685 12.1755 1.23812 12.2639 1.16758 12.3608C1.04161 12.5594 0.904308 12.749 0.789677 12.9518C0.219281 13.9482 -0.0513673 15.0775 0.00804246 16.2134C0.0719031 17.1076 0.34352 17.9767 0.802904 18.7567C1.48128 19.9182 2.5352 20.8352 3.80473 21.3685C4.21991 21.5307 4.65253 21.6481 5.09465 21.7185C5.97776 21.8614 6.8833 21.8052 7.73999 21.5544C8.59855 21.2958 9.40467 20.8977 10.1233 20.3772L10.6366 20.0139L10.9704 20.5165C11.1896 20.858 11.4818 21.1508 11.8275 21.3755C12.1732 21.6003 12.5646 21.7519 12.9759 21.8203C13.0811 21.833 13.1825 21.8536 13.2908 21.8663L13.6114 21.8705C13.824 21.8763 14.0368 21.8651 14.2475 21.8372C14.3613 21.8287 14.4741 21.8117 14.5851 21.7864L14.941 21.7185C15.1778 21.664 15.3667 21.6259 15.5708 21.5629C16.3592 21.2964 17.0102 20.7476 17.3879 20.0308C17.6341 19.6191 17.9076 19.2231 18.2067 18.8452C18.5342 18.454 18.9308 18.1213 19.3782 17.8623C19.708 17.643 20.0966 17.5198 20.4974 17.5075C20.8259 17.5078 21.1536 17.5376 21.4762 17.5965C21.7294 17.6446 21.9866 17.6714 22.2446 17.6764C22.3464 17.6755 22.4477 17.6642 22.5469 17.6425C22.5938 17.6359 22.6396 17.6233 22.683 17.605C22.7403 17.5795 22.8411 17.5444 22.8631 17.5287C23.3184 17.3174 23.7302 17.0288 24.0787 16.6766C24.4417 16.2902 24.7761 15.8798 25.0795 15.4486C26.4366 13.695 28.1784 12.2501 30.1813 11.2163C32.0431 10.2462 34.0333 9.52366 36.0974 9.06834C39.8277 8.23535 43.682 8.04407 47.4818 8.50335C47.934 8.54514 48.351 8.62992 48.7805 8.6929C48.9959 8.73528 49.1887 8.748 49.4261 8.81401C49.6409 8.86487 49.8563 8.91938 50.0667 8.97024C50.2792 9.01822 50.4877 9.08179 50.6902 9.16039C50.8918 9.23608 51.0939 9.30754 51.2911 9.3796C51.686 9.53584 52.0551 9.72538 52.4323 9.89433C53.8222 10.623 55.1127 11.5145 56.2744 12.5485C56.5421 12.7974 56.8009 13.0209 57.0686 13.2867C57.3143 13.5483 57.5605 13.8057 57.8018 14.063C58.0209 14.3331 58.2426 14.6032 58.4555 14.869C58.6684 15.1349 58.846 15.4177 59.0394 15.6835C60.3257 17.6292 61.2798 19.7603 61.8655 21.9959C62.3062 23.6264 62.5522 25.2999 62.5986 26.9839C62.6251 27.6634 62.5766 28.2665 62.5501 28.7812C62.4978 29.3002 62.4361 29.735 62.3832 30.0765C62.328 30.4252 62.2399 30.7684 62.1199 31.1017C62.2833 29.7394 62.3362 28.3669 62.278 26.9966C62.1718 25.3438 61.8806 23.7068 61.4095 22.114C60.7869 19.9475 59.8136 17.8886 58.5254 16.0129C58.3327 15.7556 58.1526 15.4897 57.9466 15.2324C57.7407 14.975 57.5252 14.7255 57.3054 14.4681C57.073 14.2259 56.8362 13.9873 56.595 13.7384C56.3531 13.5108 56.0678 13.2697 55.8045 13.0293C54.6745 12.0551 53.4246 11.2176 52.0828 10.5356C51.7231 10.3836 51.3679 10.2068 50.9988 10.0633C50.8099 9.9997 50.6209 9.93248 50.432 9.8689C50.2446 9.79627 50.0509 9.73973 49.8531 9.69995L49.2649 9.56127C49.0891 9.51464 48.8523 9.49345 48.6457 9.45954C48.2244 9.39898 47.7904 9.31602 47.3646 9.28695C43.6694 8.88208 39.9289 9.10654 36.3147 9.95004C34.3416 10.4054 32.4416 11.1151 30.6662 12.0598C28.8058 13.0368 27.1928 14.3968 25.9424 16.0426C25.6117 16.512 25.2496 16.9603 24.8585 17.3845C24.4173 17.8321 23.8972 18.2011 23.3223 18.4745C23.2512 18.5089 23.1778 18.5384 23.1025 18.563C23.0137 18.6017 22.9211 18.6315 22.826 18.652C22.6447 18.6936 22.4593 18.7162 22.273 18.7192C21.949 18.7211 21.6257 18.6929 21.3074 18.635C21.0584 18.5887 20.8052 18.566 20.5516 18.5672C20.3613 18.5689 20.1761 18.6264 20.0207 18.7319L20.003 18.7446L19.9766 18.7616C19.6301 18.9578 19.3247 19.2143 19.0759 19.5179C19.0129 19.6021 18.9443 19.6996 18.8781 19.7923C19.0274 19.6954 19.1767 19.5985 19.3303 19.4967L19.5892 19.3326C19.6768 19.2818 19.7693 19.1679 19.8411 19.3072C19.9948 19.4677 20.1309 19.636 20.311 19.8007C20.7 20.1491 21.2021 20.3578 21.7326 20.3918C23.0531 20.3959 24.3468 20.0339 25.4587 19.349C26.8409 18.5871 28.1142 17.6556 29.2466 16.5779C29.5489 16.2873 29.843 15.9875 30.1195 15.6666C30.2556 15.5067 30.3828 15.3335 30.5145 15.1603C30.6461 14.9871 30.7777 14.8145 30.9012 14.6286L31.2829 14.0588C31.4088 13.8608 31.5505 13.6627 31.7042 13.4532C32.0255 13.0169 32.4199 12.6348 32.8713 12.3226C33.1088 12.1706 33.3676 12.0526 33.6221 11.9175C33.8854 11.8158 34.1575 11.7358 34.4296 11.6474C34.5619 11.598 34.7007 11.5666 34.8421 11.5542L35.2546 11.4936L35.676 11.43C35.8165 11.4173 35.9569 11.4137 36.0974 11.4052C37.2468 11.33 38.4014 11.3951 39.5338 11.599C40.7528 11.7968 41.9299 12.1855 43.0181 12.7496L43.4439 12.9736C43.5799 13.0536 43.7071 13.1504 43.8388 13.2395C44.0983 13.4211 44.3704 13.5937 44.6248 13.7923L45.3554 14.4312C45.5955 14.6524 45.8212 14.8876 46.0313 15.1355C47.8116 17.2432 48.9388 19.7903 49.2838 22.4852C49.4898 23.9184 49.5222 25.3697 49.3801 26.8101C49.3074 27.5607 49.1858 28.3062 49.0161 29.0422C49.1277 29.0732 49.2363 29.1137 49.3404 29.1633C49.4957 29.2419 49.6329 29.3496 49.7442 29.48C49.8753 29.6371 49.9549 29.828 49.9728 30.0287C49.9903 30.2155 49.9601 30.4037 49.8846 30.5767L49.8216 30.7075L49.7952 30.7584L49.7776 30.7838L49.7467 30.8262L49.6837 30.9146L49.5521 31.0878C49.4948 31.1381 49.4261 31.1889 49.3675 31.235C49.2488 31.3267 49.1154 31.3995 48.9726 31.4505C48.4725 31.6486 48.2527 31.5517 47.9239 32.0119C47.7423 32.3915 47.5948 32.7853 47.483 33.1891C47.1316 33.9158 46.7455 34.6322 46.3418 35.3322C45.4622 36.8164 44.5058 38.2572 43.476 39.6493C41.4964 42.3622 38.9203 44.9909 37.4767 47.9745C36.9848 48.987 36.5376 50.0165 36.0016 51.0023C35.5096 51.7846 34.8713 52.4726 34.119 53.0316C33.7983 53.3408 33.5034 53.6738 33.2373 54.0277C32.9972 54.2635 32.7972 54.534 32.6446 54.8295C33.3821 54.821 33.7462 54.2512 34.2595 53.8606C34.8893 53.3761 35.6685 53.0086 36.338 52.578C37.6676 51.7339 38.9625 50.8522 40.243 49.9408C42.2068 48.5407 44.084 47.0317 45.865 45.4215C46.7335 44.6621 47.5152 43.8561 48.305 43.084C48.6779 42.6803 49.0465 42.2794 49.411 41.8814C49.5911 41.6827 49.775 41.4889 49.9464 41.2861C50.1177 41.0832 50.2846 40.881 50.4464 40.6805C51.734 39.1526 52.8671 37.5101 53.8306 35.7755C54.0454 35.3576 54.2564 34.944 54.4667 34.5389C54.5735 34.34 54.6659 34.1342 54.7432 33.9231C54.8264 33.7123 54.9146 33.5095 54.9952 33.303C55.3466 32.4927 55.6187 31.6679 55.8952 30.868C56.4077 29.386 56.8197 27.8735 57.1284 26.3402C57.6509 23.9303 57.4988 21.4302 56.6876 19.0952C56.1622 17.6485 55.5026 16.2501 54.7168 14.9169C54.4156 14.4714 54.1529 14.0029 53.9314 13.5162C54.0339 13.6094 54.1225 13.7158 54.1946 13.8323C54.3527 14.0521 54.5896 14.3773 54.8875 14.8157C55.7545 16.1269 56.4796 17.5198 57.0516 18.9729C57.9553 21.3585 58.1753 23.9338 57.6884 26.4292C57.4076 27.9978 57.0168 29.5463 56.5188 31.0642C56.2555 31.866 55.9966 32.6926 55.6496 33.547C55.5664 33.7577 55.4833 33.9709 55.3976 34.1883C55.3203 34.4063 55.2279 34.6191 55.1211 34.8253C54.9108 35.2492 54.6998 35.6731 54.485 36.1085C53.5272 37.8964 52.3911 39.5907 51.0927 41.1674C50.9258 41.3787 50.7544 41.5913 50.5888 41.8002C50.4231 42.0091 50.2292 42.2053 50.049 42.4124C49.6806 42.8176 49.3121 43.2312 48.9342 43.6484C48.1444 44.4417 47.3546 45.2731 46.481 46.0537C44.6946 47.7052 42.807 49.2524 40.8281 50.6868C38.783 52.185 36.5931 53.645 34.2582 55.0414C33.67 55.3836 33.0779 55.7294 32.4764 56.0751C31.8711 56.4088 31.2608 56.7413 30.6461 57.0798C29.3914 57.7083 28.1318 58.3793 26.8192 58.9952L24.8226 59.8981C24.1556 60.2063 23.4842 60.5145 22.7731 60.7761C21.3729 61.3078 19.964 61.9364 18.5071 62.3627C17.7828 62.5989 17.0497 62.835 16.3172 63.0712L16.1767 63.1178L16.1137 63.139L16.0508 63.1602L16.0111 63.1687L15.7169 63.2359L15.1287 63.3794C14.7338 63.4515 14.3388 63.5272 13.9439 63.5902C12.3599 63.8324 10.7708 63.9662 9.18674 64.1515C7.60439 64.3071 6.03811 64.588 4.50386 64.9914C3.33154 65.3106 2.23659 65.8498 1.28221 66.578C2.57717 67.0128 3.88472 67.4428 5.21495 67.8352C5.6275 67.9563 6.04445 68.0925 6.46141 68.2106C6.87836 68.3287 7.29469 68.4304 7.71605 68.54C8.55437 68.755 9.38829 68.996 10.2707 69.1517C10.7116 69.2407 11.1481 69.3291 11.5871 69.4217L12.2453 69.5525C12.4342 69.5949 12.671 69.6246 12.882 69.6585C13.7523 69.8011 14.6299 69.8996 15.511 69.9534C17.2952 70.0619 19.0864 69.9807 20.852 69.7112C24.4245 69.1838 27.9353 67.9181 31.4964 66.6143C35.06 65.2979 38.6854 63.9686 42.2667 62.4578C45.8975 60.9646 49.3979 59.1937 52.734 57.1621C56.127 55.0942 59.1611 52.5268 61.7257 49.5538C62.3672 48.8108 62.9678 48.036 63.5251 47.2327C63.8209 46.8278 64.0942 46.4082 64.3439 45.9756L65.1337 44.6803L65.8058 43.3844C66.0426 42.9502 66.2309 42.4857 66.4419 42.0346C66.8721 41.1353 67.2053 40.1949 67.5756 39.2665C68.2469 37.3704 68.7922 35.4351 69.2082 33.4725C69.6012 31.4913 69.8537 29.4867 69.964 27.4726C70.1788 22.5869 69.4501 17.6922 67.3042 13.409ZM5.32139 11.0631C5.7116 10.6264 6.20306 10.2839 6.75617 10.0633C6.9086 10.0048 7.07076 9.97319 7.23485 9.97003C7.34004 9.97003 7.40176 9.9785 7.40617 10.0039C7.41058 10.0294 7.36208 10.0645 7.26572 10.1093C7.13144 10.167 7.00213 10.2348 6.87899 10.3122C6.43271 10.6025 6.04229 10.9652 5.72512 11.384C5.24391 11.9654 4.94951 12.6692 4.87798 13.409C4.86832 13.594 4.90659 13.7783 4.98938 13.9456C5.07216 14.1128 5.19685 14.2576 5.35225 14.367C5.40012 14.3967 5.46185 14.4597 5.49712 14.4639C5.5335 14.473 5.56876 14.4858 5.6023 14.5021C5.69139 14.5271 5.78236 14.5455 5.87439 14.5572C6.10041 14.5595 6.32543 14.528 6.5414 14.4639C7.14248 14.2649 7.71807 14.0008 8.25709 13.6767C8.79146 13.349 9.36176 13.0789 9.95766 12.8713L10.5724 12.6896L10.3438 13.28C10.2496 13.5001 10.1961 13.7344 10.1857 13.9722C10.185 14.0622 10.2043 14.1512 10.2422 14.2335C10.2801 14.3158 10.3358 14.3894 10.4055 14.4494C10.7158 14.6465 11.0899 14.7289 11.4586 14.6813C12.1388 14.6347 12.5337 14.4657 12.5646 14.542C12.5866 14.5844 12.2616 14.8751 11.5115 15.044C11.2721 15.108 11.0216 15.1241 10.7755 15.0914C10.5294 15.0587 10.2929 14.9779 10.0805 14.8539C9.94122 14.7569 9.82555 14.632 9.74148 14.4879C9.65742 14.3437 9.60696 14.1836 9.59361 14.0188C9.58486 13.9181 9.58486 13.8168 9.59361 13.716C9.28625 13.8765 8.96377 14.0745 8.62366 14.2732C8.04044 14.6415 7.4105 14.9364 6.74925 15.1506C6.45 15.2412 6.13691 15.2821 5.82338 15.2717C5.65358 15.2554 5.48685 15.2171 5.32769 15.1579C5.23951 15.1197 5.15637 15.0822 5.07575 15.0368C5.01437 15.0043 4.95815 14.9635 4.90885 14.9157L4.83389 14.8605L4.79484 14.8315L4.77721 14.8145L4.74572 14.7945L4.74131 14.7903L4.73249 14.7776L4.5744 14.6044C4.47498 14.4876 4.39508 14.3567 4.33758 14.2162C4.22825 13.9554 4.18029 13.6746 4.19712 13.3939C4.29627 12.5195 4.69125 11.7007 5.32139 11.0631ZM27.2739 11.2617C26.8261 11.7001 26.1635 12.3251 25.2811 13.059C24.2408 13.9424 23.1033 14.7141 21.8888 15.3601C21.1298 15.7751 20.2809 16.0147 19.4091 16.0602C18.8976 16.068 18.3968 15.9195 17.9787 15.6363C17.8227 15.5232 17.6812 15.3927 17.5573 15.2475C17.4119 15.7542 17.1963 16.2398 16.9162 16.6912C16.5247 17.3301 15.9986 17.8833 15.3718 18.3153C14.7553 18.7426 14.0274 18.9969 13.2694 19.0498C13.0836 19.0626 12.8969 19.0583 12.712 19.0371C12.5318 19.0032 12.3479 18.9735 12.1722 18.936C12.0053 18.8754 11.8384 18.8052 11.6721 18.7416C11.5123 18.6715 11.3607 18.5852 11.2199 18.4842C10.9418 18.3042 10.6868 18.0932 10.4603 17.8557C10.3198 17.701 10.188 17.5393 10.0654 17.3712C9.24809 17.8409 8.32894 18.1225 7.37972 18.1942C6.56541 18.2517 5.75091 18.0849 5.03166 17.7134C4.58046 17.4752 4.17883 17.1591 3.84693 16.7808C3.63593 16.5107 3.53957 16.3569 3.56602 16.3375C4.07192 16.7402 4.61717 17.0949 5.19416 17.3966C5.86703 17.6797 6.60649 17.7843 7.33563 17.6994C8.28637 17.5792 9.19339 17.242 9.98097 16.716L10.2134 16.5688L10.4156 16.8008C10.5907 17.003 10.7532 17.2247 10.9421 17.4251C11.1384 17.6207 11.3578 17.7934 11.5959 17.9398C11.7126 18.0196 11.8375 18.0876 11.9687 18.1427C12.1004 18.193 12.2327 18.2438 12.3687 18.2899C12.5085 18.3153 12.6496 18.3365 12.7938 18.3619C12.9402 18.3784 13.088 18.3798 13.2347 18.3662C13.8752 18.2808 14.4854 18.0508 15.0156 17.6951C15.5458 17.3393 15.9808 16.8679 16.2851 16.3193C16.6763 15.6987 16.9292 15.0066 17.0276 14.2871L17.2027 13.042L17.7293 14.1896C17.8707 14.5366 18.1039 14.8422 18.4057 15.0761C18.7005 15.2804 19.0558 15.3883 19.4192 15.3838C20.1827 15.3511 20.9285 15.1521 21.6003 14.8018C22.7937 14.2067 23.9241 13.5016 24.9756 12.6963C26.7883 11.3374 27.8546 10.4514 27.9245 10.5314C27.9541 10.5653 27.7217 10.8184 27.2739 11.2617ZM37.8861 6.5819C36.9861 6.72966 35.7484 6.91133 34.4144 7.19776C33.2776 7.42281 32.1705 7.76974 31.1141 8.23206C30.3287 8.58632 29.8588 8.92785 29.7914 8.84368C29.7341 8.7801 30.0503 8.31624 30.8577 7.79303C31.3207 7.50235 31.8133 7.25766 32.3278 7.06272C32.9546 6.83003 33.5986 6.64259 34.2545 6.50197C35.4316 6.25195 36.6307 6.11001 37.8357 6.07808C38.7572 6.05688 39.3278 6.10775 39.3367 6.20464C39.3455 6.30153 38.7855 6.42991 37.8861 6.5819ZM38.0178 49.0355C37.8641 48.938 39.365 46.2039 41.6998 43.0816C44.0302 39.9932 45.9569 37.5328 46.1371 37.6424C46.3033 37.7435 44.6317 40.4104 42.3057 43.4952C40.0011 46.5708 38.2061 49.1536 38.0178 49.0355ZM44.0964 44.4066C42.547 46.4782 41.0152 47.8831 40.8703 47.7692C40.699 47.6342 41.994 46.0016 43.4993 43.9887C45.0222 41.9419 46.5496 40.4698 46.6857 40.5976C46.8482 40.7393 45.6143 42.3682 44.0964 44.4066ZM51.184 15.279C51.276 15.2414 51.4737 15.4437 51.7105 15.8064C52.0206 16.2825 52.2836 16.7855 52.496 17.3088C52.718 17.8437 52.85 18.4091 52.8871 18.9838C52.8915 19.4313 52.8165 19.7057 52.7202 19.7105C52.6238 19.7153 52.5048 19.4683 52.3687 19.0734C52.2327 18.6786 52.0355 18.1536 51.8019 17.5595C51.5682 16.9655 51.3503 16.4247 51.2319 16.0069C51.1135 15.589 51.092 15.3165 51.184 15.279ZM50.1964 25.4058C50.0868 25.4058 50.0119 24.5701 49.8815 23.2367C49.7456 21.5148 49.4075 19.8133 48.8737 18.1645C48.268 16.5514 47.3556 15.0606 46.183 13.7681C45.727 13.274 45.3535 12.8731 45.077 12.603C44.8094 12.3208 44.6733 12.1519 44.7086 12.1137C44.7439 12.0756 44.9366 12.1773 45.266 12.3923C45.7267 12.7019 46.1612 13.0461 46.5654 13.4217C47.9167 14.6817 48.9457 16.2257 49.5716 17.9326C50.1423 19.638 50.4251 21.4204 50.4093 23.2119C50.403 24.5701 50.2928 25.4058 50.1964 25.4058ZM53.1894 24.2746C53.1806 24.5169 53.1718 24.7221 53.1636 24.8862C53.1371 25.2241 53.1006 25.4058 53.049 25.4058C52.9973 25.4058 52.9394 25.2241 52.8739 24.899C52.843 24.7349 52.8109 24.5356 52.7769 24.3085C52.7485 24.0475 52.7046 23.7883 52.6452 23.5322C52.3394 22.0485 51.8792 20.5982 51.2715 19.203C50.629 17.8176 49.8926 16.4742 49.0671 15.1815C48.4221 14.1775 48.0228 13.5465 48.1104 13.4859C48.1897 13.4351 48.7295 13.9498 49.4929 14.8866C50.4719 16.1375 51.298 17.4926 51.9549 18.9251C52.5921 20.3722 52.9991 21.9032 53.1623 23.4668C53.192 23.7351 53.201 24.0051 53.1894 24.2746ZM61.9278 16.3375C61.3592 15.2131 60.6801 14.1434 59.8997 13.1432C59.6894 12.89 59.4658 12.6412 59.2504 12.3923L59.0879 12.207C59.0621 12.1815 59.0249 12.1307 59.0136 12.1264L58.926 12.0423L58.5834 11.7044C58.1425 11.2405 57.6487 10.8396 57.1832 10.4327C56.2528 9.68756 55.2314 9.05412 54.1417 8.54635C53.1542 8.08824 52.1123 7.74743 51.0391 7.53143C50.0977 7.32931 49.1432 7.1877 48.1822 7.10753C46.4136 6.9513 44.9605 6.92223 43.9622 6.87136C43.4403 6.88547 42.9186 6.83871 42.4084 6.73208C42.9196 6.62262 43.4432 6.57583 43.9666 6.5928C44.9668 6.55889 46.4199 6.51287 48.2237 6.60552C49.2126 6.65272 50.1966 6.76828 51.1682 6.9513C52.2951 7.1525 53.3914 7.48858 54.4315 7.95169C55.5824 8.46701 56.6615 9.11903 57.6437 9.89251C58.1349 10.3164 58.6514 10.7282 59.1093 11.2048L59.4696 11.5548L59.5571 11.6438C59.59 11.6756 59.6207 11.7094 59.6491 11.7449L59.8116 11.9308C60.0314 12.184 60.2525 12.4244 60.4698 12.686C61.2878 13.7309 61.9951 14.852 62.581 16.0323C63.1102 17.1278 63.556 18.2587 63.915 19.4162C64.5035 21.3728 64.9041 23.3771 65.1117 25.404C65.2565 26.7625 65.3282 28.1272 65.3265 29.4928C65.3626 29.9953 65.3302 30.5001 65.2301 30.9946C65.1041 30.9946 65.0676 28.8551 64.5889 25.4627C64.3142 23.4805 63.8719 21.5231 63.2663 19.61C62.8998 18.4906 62.4525 17.3971 61.9278 16.3375ZM61.6948 36.9799C62.6868 35.0597 63.3891 33.9079 63.4722 33.9521C63.5692 33.9987 63.0427 35.2238 62.1735 37.1925C61.0894 39.8087 59.7088 42.3021 58.0568 44.6276C57.8049 44.9649 57.5479 45.2937 57.301 45.6237C57.0333 45.9265 56.7701 46.2293 56.5112 46.5181C56.3796 46.6659 56.2523 46.8137 56.1251 46.9566L55.9229 47.1806L55.7302 47.3871C55.4783 47.6615 55.2263 47.9321 54.9794 48.1931C54.1231 49.1512 53.2133 50.0639 52.2541 50.9272C51.8371 51.2948 51.4353 51.5982 51.0782 51.8598C50.7003 52.102 50.3854 52.3285 50.1082 52.4654C49.5552 52.7397 49.2346 52.8747 49.2082 52.8323C49.1817 52.79 49.45 52.5792 49.959 52.2268C50.2109 52.05 50.4855 51.8029 50.8193 51.5437C51.1437 51.2652 51.5084 50.9382 51.8945 50.5603C52.6711 49.8136 53.5094 48.8387 54.4661 47.7583C54.7029 47.4883 54.9536 47.2133 55.2036 46.9317L55.3964 46.7162L55.5765 46.5097C55.7025 46.3619 55.8284 46.2184 55.9544 46.0664C56.2064 45.7709 56.4722 45.4717 56.7361 45.1635C56.9729 44.847 57.2141 44.5263 57.4597 44.2013C59.0757 41.9103 60.4922 39.495 61.6948 36.9799ZM59.8519 35.1106C59.935 35.1741 59.6982 35.6041 59.348 36.2963C58.9877 36.9927 58.5292 37.9712 57.9655 39.0473C57.4976 39.9952 56.8884 40.8724 56.1572 41.6512C55.5513 42.2459 55.0865 42.453 55.0235 42.3894C54.9448 42.3095 55.3132 41.9419 55.7522 41.3303C56.3313 40.4962 56.8503 39.625 57.3054 38.7227C57.7697 37.7938 58.3007 36.897 58.8945 36.0389C59.3776 35.3837 59.7769 35.0518 59.8519 35.1106ZM50.6562 43.7095C52.3267 41.8798 53.8496 39.9303 55.2118 37.878C55.932 36.7429 56.5671 35.5599 57.1121 34.3379C57.3313 33.7638 57.5725 33.2279 57.7174 32.7028C57.7967 32.4412 57.8887 32.1924 57.9548 31.9477C58.0209 31.7031 58.0688 31.4669 58.1255 31.2428C58.5292 29.4498 58.5122 28.2556 58.6438 28.2556C58.6961 28.2556 58.7402 28.5469 58.7755 29.0743C58.7799 29.2094 58.7887 29.3529 58.7975 29.5133C58.8063 29.6738 58.7843 29.8549 58.7711 30.0444C58.7575 30.4759 58.7135 30.9061 58.6394 31.3319C58.5998 31.568 58.5557 31.8163 58.5135 32.0743C58.4606 32.3316 58.3818 32.5932 58.3113 32.8676C58.153 33.4476 57.9638 34.0194 57.7444 34.5807C57.2218 35.8566 56.5845 37.0863 55.8398 38.2559C54.4639 40.3486 52.8571 42.2924 51.0473 44.0535C49.6648 45.3997 48.7257 46.1469 48.6596 46.0834C48.5827 46.0058 49.3889 45.1363 50.6574 43.7102L50.6562 43.7095ZM14.4453 64.6814C14.5946 64.6729 14.7791 64.6644 14.9939 64.6517C15.2087 64.639 15.4505 64.5803 15.727 64.5421C17.2769 64.2476 18.7905 63.7979 20.243 63.2002C22.1086 62.4662 24.3118 61.5379 26.7782 60.5502C28.0115 60.0567 29.3058 59.5335 30.6486 58.9976C30.9868 58.8625 31.3251 58.7275 31.6671 58.5925C31.9788 58.4659 32.3297 58.2897 32.6635 58.1371C33.3349 57.8161 34.0283 57.5085 34.713 57.1682C39.2909 54.7097 43.657 51.9033 47.7696 48.7757C49.3537 47.5773 50.6398 46.6066 51.5178 45.9186C51.9509 45.5348 52.4278 45.1994 52.9394 44.9189C52.5754 45.3645 52.1618 45.7706 51.7061 46.13C50.8873 46.8809 49.6478 47.9146 48.0984 49.1681C44.0422 52.443 39.6684 55.3361 35.0374 57.8077C34.3483 58.154 33.6555 58.4574 32.9834 58.7766C32.637 58.9328 32.3253 59.0933 31.9568 59.2404C31.6142 59.3755 31.2722 59.5063 30.9339 59.6413C29.5867 60.1645 28.2886 60.6708 27.0503 61.1552C24.5662 62.109 22.341 62.9907 20.4319 63.6701C18.9298 64.2432 17.3575 64.6288 15.7535 64.8176C15.4682 64.8346 15.2093 64.8643 14.9939 64.8643C14.7747 64.8518 14.5904 64.839 14.4409 64.8261C14.1474 64.8049 13.9893 64.7795 13.9893 64.7547C13.9893 64.7298 14.1474 64.7068 14.4453 64.6814ZM43.1434 54.7907C41.8559 55.8012 40.4403 56.6505 38.9304 57.3184C37.7369 57.8161 36.9426 57.8712 36.9206 57.7907C36.8853 57.6853 37.6405 57.4492 38.7024 56.8666C40.0971 56.0856 41.4292 55.2055 42.6874 54.2336C44.1795 53.0988 45.4915 52.0185 46.4526 51.2464C47.4138 50.4743 48.0417 50.0183 48.1116 50.0904C48.1815 50.1624 47.6903 50.7444 46.8129 51.6176C45.662 52.7501 44.4363 53.81 43.1434 54.7907ZM45.1936 55.2146C44.8504 55.6973 44.4297 56.1245 43.9471 56.4803C42.7882 57.2863 41.7427 57.6308 41.6381 57.4764C41.5197 57.299 42.4462 56.6492 43.4993 55.911C43.995 55.4974 44.4869 55.168 44.8024 54.8767C45.1407 54.6066 45.3951 54.4637 45.4783 54.5225C45.5614 54.5812 45.448 54.8374 45.1936 55.2128V55.2146ZM9.50355 65.8544C7.22163 66.1117 5.35225 66.2177 5.32139 66.0191C5.29053 65.8205 7.11644 65.4075 9.40718 65.1501C11.6746 64.8758 13.4797 64.5445 13.5503 64.7535C13.6114 64.9176 11.8125 65.5758 9.50355 65.8544ZM31.5795 65.0671C29.5934 65.988 27.5215 66.727 25.3913 67.2744C23.2738 67.8497 21.1099 68.2533 18.9222 68.4807C17.2279 68.6454 16.1837 68.5316 16.1837 68.4431C16.1837 68.3372 17.2191 68.27 18.8517 67.9829C20.493 67.7128 22.7403 67.2278 25.1935 66.5865C27.2856 66.0392 29.3442 65.3799 31.3597 64.6118C32.9047 64.0165 33.7827 63.5018 33.8482 63.5902C33.9074 63.6634 33.1025 64.3441 31.577 65.0696L31.5795 65.0671ZM65.7107 34.3106C65.671 34.5298 65.6143 34.7999 65.5438 35.1166C65.4682 35.4848 65.3717 35.8486 65.2547 36.2066C65.1287 36.6118 64.9952 37.0629 64.8459 37.557C64.662 38.0415 64.4642 38.5695 64.2539 39.1351C64.034 39.7001 63.75 40.2784 63.4722 40.9112C63.1787 41.5356 62.8184 42.169 62.4645 42.849C60.6644 45.9724 58.3598 48.801 55.637 51.2294C54.0323 52.6583 52.3236 53.9754 50.5239 55.1704C49.5792 55.776 48.606 56.4027 47.614 56.9641C47.3621 57.1119 47.1266 57.2548 46.8582 57.4025C46.595 57.5376 46.3361 57.6769 46.0772 57.8161C45.5507 58.0862 45.033 58.386 44.4888 58.6348C42.3864 59.6304 40.2224 60.5009 38.0089 61.2412C35.8675 61.9418 33.789 62.5619 31.8075 63.1106C29.826 63.6592 27.9409 64.1824 26.1811 64.6717C24.4214 65.161 22.7844 65.6509 21.2684 66.0391C18.8771 66.7044 16.4183 67.1204 13.9345 67.2799C12.1615 67.3471 11.2092 67.1739 11.2092 67.1067C11.2092 67.0098 12.1923 67.0219 13.8948 66.8069C16.3136 66.473 18.6983 65.9408 21.0227 65.2161C22.506 64.7771 24.1209 64.2581 25.8725 63.7143C26.7373 63.44 27.672 63.1657 28.589 62.9041C29.5241 62.6255 30.4838 62.3385 31.468 62.043C33.4432 61.4652 35.4927 60.8318 37.5951 60.1233C39.7535 59.3843 41.8659 58.5266 43.9219 57.5545C44.4529 57.3123 44.9486 57.0228 45.4625 56.7612C45.7144 56.6262 45.9664 56.4954 46.2183 56.3604C46.4703 56.2253 46.714 56.0776 46.9603 55.9365C47.968 55.3715 48.9002 54.7762 49.8216 54.1943C51.583 53.0437 53.2617 51.7805 54.8465 50.4131C57.526 48.0928 59.8319 45.4023 61.6885 42.43C62.0576 41.7802 62.4393 41.1722 62.7466 40.5776C63.0452 39.972 63.3607 39.4173 63.6026 38.8772C63.8445 38.337 64.0718 37.8265 64.2784 37.3633C64.4674 36.8909 64.6336 36.4549 64.7873 36.068C64.941 35.681 65.0771 35.3292 65.1822 35.0258C65.2874 34.7224 65.3844 34.4602 65.4632 34.2537C65.6256 33.8401 65.7308 33.6288 65.7781 33.6372C65.8253 33.6457 65.7944 33.8782 65.7107 34.313V34.3106ZM67.0963 23.7133C67 23.7387 66.6882 22.9866 66.3065 21.7385C65.9116 20.4983 65.4726 18.7598 64.7615 16.9455C64.4277 16.0971 64.0181 15.2781 63.5371 14.4978C63.3246 14.1619 63.0916 13.8383 62.8392 13.5289C62.626 13.2536 62.3959 12.9907 62.1502 12.7417C61.796 12.3745 61.4193 12.0279 61.0221 11.7038C60.7368 11.4615 60.5919 11.3113 60.6228 11.2696C60.6537 11.2278 60.8514 11.3029 61.1897 11.4761C61.6702 11.7249 62.1167 12.03 62.5193 12.3844C62.8027 12.6236 63.0683 12.8816 63.3141 13.1565C63.6035 13.4707 63.8704 13.8036 64.1128 14.1526C64.6535 14.952 65.1036 15.8046 65.4556 16.696C66.0483 18.3013 66.5019 19.9511 66.8116 21.6283C67.0623 22.8994 67.194 23.6927 67.0932 23.7175L67.0963 23.7133ZM67.4257 17.2786C67.25 17.3797 66.6271 16.65 66.0212 15.6835C65.4329 14.7467 64.946 13.9159 65.1218 13.7972C65.2792 13.6876 66.008 14.2998 66.6529 15.3111C67.2689 16.3042 67.5977 17.1817 67.4226 17.2828L67.4257 17.2786Z" fill="black"/>
<path d="M19.2075 31.1865C19.1658 31.4031 19.1703 31.6256 19.2207 31.8405C19.2574 32.032 19.34 32.2126 19.462 32.368C19.5672 32.4606 19.576 32.4649 19.7032 32.4479L20.0282 32.4061L20.3482 32.7434C20.3658 32.7604 20.3702 32.804 20.3746 32.8112C20.379 32.8185 20.3702 32.8149 20.3702 32.8149C20.3482 32.8276 20.379 32.8149 20.3878 32.8276C20.4247 32.8268 20.4614 32.8226 20.4974 32.8149C20.7239 32.7511 20.937 32.6499 21.1273 32.5157C21.3274 32.3801 21.518 32.232 21.6979 32.0724C21.8419 31.9448 21.9713 31.8027 22.084 31.6486L22.3359 31.2604C22.4808 31.3954 22.6565 31.7121 22.8493 31.5474C22.8757 31.522 23.0338 31.1841 23.0338 31.1841L23.2309 31.2446C23.3978 31.3045 23.5778 31.322 23.7537 31.2955C23.7467 31.2523 23.7437 31.2085 23.7449 31.1647C23.7581 30.9618 23.8369 30.8862 23.8709 30.8904C23.9187 30.8946 23.9276 30.9958 23.9849 31.1326C23.9931 31.1463 24.0005 31.1605 24.0069 31.175L24.0466 31.1369C24.0592 31.1038 24.0737 31.0715 24.0901 31.04C24.1165 30.9849 24.1385 30.9558 24.165 30.9594C24.1915 30.9631 24.2085 30.9891 24.228 31.0484C24.2412 31.0836 24.2487 31.1206 24.25 31.1581C24.2429 31.2124 24.2311 31.2661 24.2148 31.3185C24.259 31.3114 24.3016 31.2971 24.3407 31.2761L24.5253 31.192L24.6437 31.4197C24.7255 31.6304 24.8614 31.8178 25.0386 31.9647C25.061 31.9733 25.0822 31.9847 25.1016 31.9986C25.1236 32.007 25.1501 32.0028 25.1646 32.0113C25.2042 32.0276 25.266 32.007 25.3138 32.0113C25.3712 32.0028 25.4398 31.9731 25.5028 31.9604C25.5727 31.9265 25.6432 31.8926 25.7176 31.8593L26.2447 31.6171L26.2617 32.1693C26.2662 32.3976 26.275 32.6423 26.2794 32.896C26.4519 32.5551 26.5803 32.1951 26.6617 31.8242C26.7174 31.6217 26.7595 31.416 26.7877 31.2083C26.818 31.0795 26.8103 30.9451 26.7656 30.8201C26.7524 30.7862 26.6774 30.7226 26.4935 30.6597C26.2836 30.5902 26.0675 30.5393 25.8479 30.5077L25.722 30.4865L25.3844 29.7598C25.3803 29.695 25.3586 29.6323 25.3214 29.5781C25.1853 29.3462 24.8389 29.2953 24.7463 29.0973C25.0405 28.7176 24.5139 28.6837 24.2154 28.7297C23.9477 28.7721 23.9565 28.9326 23.7241 28.9072C23.2983 28.8605 22.9954 28.4227 22.5828 28.3416C21.9803 28.334 21.3943 28.5313 20.9282 28.8987L20.8804 28.9792L20.7487 29.173C20.6661 29.2632 20.5733 29.3445 20.4722 29.4152C20.2789 29.5292 20.0654 29.6078 19.8424 29.6472C19.8033 29.6568 19.7652 29.6695 19.7284 29.6853C19.6897 29.7274 19.6674 29.7812 19.6654 29.8373C19.6843 29.9583 19.7245 30.0752 19.7844 30.1831L19.2951 30.9964C19.2498 31.0517 19.2196 31.1171 19.2075 31.1865Z" fill="black"/>
<path d="M14.0157 57.1918C15.2489 57.4946 16.6661 55.9637 16.7454 55.0227C16.8698 54.0517 17.1588 53.1068 17.6007 52.2256C18.3162 50.6638 19.2598 49.1239 19.2119 47.3599C19.1854 46.2759 19.1369 45.1998 19.1854 44.1153C19.1943 43.8876 19.2075 43.6466 19.2207 43.4019C18.9358 43.4732 18.6407 43.499 18.3471 43.4782C17.8832 43.4545 17.4244 43.3731 16.9822 43.236C16.8859 44.3454 16.7889 45.4384 16.6043 46.4721C16.2932 47.9119 16.13 49.3775 16.1168 50.8479C16.229 51.8509 16.2246 52.8628 16.1036 53.8648C15.7843 55.3267 14.8446 56.0987 14.0157 57.1918Z" fill="black"/>
<path d="M30.8395 43.9221C30.8754 43.9477 30.9182 43.963 30.9628 43.9661C31.0074 43.9692 31.052 43.96 31.0914 43.9397C31.2728 43.848 31.4463 43.7427 31.6104 43.6248C31.6444 43.6002 31.6708 43.5671 31.6866 43.5291C31.8304 43.1178 31.8812 42.6818 31.8359 42.2501C31.8336 42.2062 31.818 42.1638 31.7911 42.1281C31.7642 42.0925 31.7271 42.0652 31.6843 42.0494C31.6415 42.0337 31.5949 42.0303 31.5502 42.0396C31.5054 42.0489 31.4644 42.0705 31.4322 42.1018C31.0428 42.5565 30.8047 43.1133 30.7488 43.6999C30.7407 43.7414 30.745 43.7842 30.761 43.8235C30.777 43.8628 30.8042 43.8969 30.8395 43.9221Z" fill="black"/>
<path d="M35.8191 38.0433C36.2839 36.0449 35.2881 35.2244 34.0108 34.4226C34.2123 35.3213 33.6681 36.0304 32.8141 36.6299C33.0853 37.0869 33.2834 37.5805 33.4017 38.0942C33.4811 38.4399 33.4546 38.5962 33.3715 38.6252C33.2883 38.6543 33.1561 38.5647 32.9678 38.254C32.792 37.9967 32.6031 37.5455 32.2655 36.9823C32.1118 37.0708 31.9537 37.1555 31.7912 37.2397C32.0186 37.5383 32.2003 37.8666 32.331 38.2147C32.4559 38.5506 32.5556 38.8946 32.6295 39.2441C32.7303 39.7589 32.7259 39.9654 32.6383 39.995C32.5508 40.0247 32.4015 39.86 32.1817 39.3792C32.0809 39.143 31.9449 38.8342 31.7692 38.4381C31.6245 38.1126 31.4324 37.8086 31.1985 37.5352C31.0933 37.5855 30.9882 37.6364 30.8836 37.683C31.8284 38.6519 32.564 40.7714 32.5684 42.4342C32.9728 42.0037 33.3413 41.5604 33.67 41.2189C34.5417 40.3008 35.5249 39.3047 35.8191 38.0433Z" fill="black"/>
<path d="M16.9515 61.0529C19.7952 60.8881 22.1521 59.5589 24.667 58.3733C27.274 57.1452 29.9772 55.7784 32.0532 53.791C33.8747 52.0439 34.9454 49.9759 36.2139 47.9594C35.2073 48.0349 34.1946 47.9795 33.2033 47.7947C33.1857 47.8244 33.168 47.8583 33.1504 47.8873C33.1025 47.9636 33.0584 48.0393 33.0099 48.1156C32.821 48.4275 32.6415 48.7817 32.4047 49.1493C32.164 49.5664 31.8314 49.9279 31.4303 50.2084C31.3129 50.2851 31.1859 50.3474 31.0524 50.3938C30.9144 50.4588 30.7647 50.4976 30.6115 50.5082C30.509 50.5205 30.4049 50.513 30.3054 50.4862C30.2059 50.4594 30.113 50.4137 30.032 50.352C29.8519 50.2127 29.8651 49.9808 29.6541 49.9045C29.4211 49.8203 29.0085 50.0395 28.8158 50.1467L28.7188 50.2018C28.1129 51.5648 27.5783 52.9561 27.1171 54.3705C27.0133 54.8618 26.7433 55.3064 26.3494 55.6349C24.5438 56.8822 22.3506 57.5015 20.1303 57.391C19.5634 57.3868 17.8786 57.3408 17.8528 56.4669C17.8377 56.4718 17.8225 56.4748 17.8074 56.4791C17.8074 56.4718 17.8125 56.4639 17.8144 56.4566C17.9353 56.0007 18.0392 55.6089 19.4343 55.1601C19.7455 55.0602 20.1366 54.9137 20.5882 54.7362C20.6083 54.7448 20.6295 54.7507 20.6512 54.7538C20.6666 54.7538 20.682 54.7526 20.6971 54.7502C21.7049 54.5685 22.7498 54.3814 23.3885 53.5942C23.5825 53.3598 23.7557 53.1097 23.8848 52.9177C23.9142 52.8751 23.9278 52.8241 23.9233 52.7731C23.9188 52.7221 23.8965 52.674 23.86 52.6367C23.8236 52.5994 23.7751 52.5751 23.7224 52.5676C23.6697 52.5601 23.616 52.57 23.5699 52.5956C23.0054 52.9249 22.3863 53.1586 21.7395 53.2865C21.7084 53.2905 21.6785 53.3005 21.6515 53.3158C21.6244 53.331 21.6008 53.3514 21.5821 53.3755C21.3257 53.6948 21.022 53.9761 20.6808 54.2106C20.1139 54.4322 19.6441 54.6121 19.2832 54.7278C17.6456 55.2534 17.4906 55.8323 17.3552 56.3434C17.3376 56.41 17.313 56.4772 17.2922 56.5444H17.2727C17.1293 56.7306 16.9525 56.8905 16.7506 57.0168C16.0041 57.5839 15.1116 57.9455 14.1682 58.0632C14.1413 58.0988 14.1105 58.1315 14.0762 58.1607C12.7256 59.2048 11.2598 60.1032 9.70514 60.8397C11.863 61.5676 14.7307 61.1806 16.9515 61.0529Z" fill="black"/>
<path d="M21.3313 55.251C20.7527 55.3581 20.1824 55.5031 19.6244 55.6852C17.9566 56.2974 20.0892 56.5039 20.1283 56.5039C21.8402 56.5251 23.2775 56.4155 24.7715 55.535C26.2025 54.6829 26.3121 53.5518 26.85 52.1172C27.7947 49.5896 29.6635 47.2563 30.0407 44.5604C30.2379 43.1506 30.0451 41.7711 31.4541 41.2437C31.4188 41.0875 31.3836 40.9312 31.3439 40.7708C31.1303 40.9124 30.8828 40.9995 30.6246 41.0239C30.4277 41.0414 30.2291 41.0287 30.0363 40.9863C29.957 40.9609 29.9966 40.9736 29.979 40.9651L29.9702 40.9567C29.9647 40.9719 29.9602 40.9875 29.957 41.0033C29.9311 41.1129 29.9047 41.2225 29.8782 41.3236C29.8111 41.5475 29.7046 41.7587 29.5633 41.948C29.371 42.1885 29.1645 42.4182 28.9448 42.6359C28.633 42.9568 28.5039 43.0961 28.4359 43.0598C28.3786 43.0343 28.3874 42.8278 28.6286 42.4185C28.7426 42.2114 28.9436 41.971 29.1161 41.6797C29.2078 41.5244 29.2743 41.3565 29.3133 41.1819L29.3397 41.0299L29.3574 40.9542C29.3618 40.9288 29.3618 40.8489 29.3618 40.798C29.3706 40.5661 29.3794 40.3214 29.3882 40.0713C29.5199 40.1319 29.6515 40.1894 29.7919 40.2482C29.8619 40.2778 29.9368 40.3117 30.0111 40.3456L30.1825 40.3917C30.3053 40.4144 30.4308 40.4201 30.5553 40.4086C30.7825 40.3809 30.9931 40.2797 31.1524 40.1216C30.9583 39.3589 30.5515 38.6615 29.9759 38.1045C29.8096 38.1808 29.6471 38.2522 29.489 38.3243C28.2923 38.8814 27.299 39.1763 27.3998 41.0081C27.4424 41.7278 27.4365 42.4493 27.3822 43.1682C27.3064 44.5562 27.0978 45.9347 26.7593 47.286C26.2063 49.2777 25.5626 51.9864 24.2046 53.6577C23.4824 54.5096 22.4599 55.0766 21.3313 55.251Z" fill="black"/>
<path d="M22.1961 46.5163C21.5247 47.8582 20.6845 49.4654 20.6423 50.9975C20.5793 53.6729 23.3065 51.9004 24.4736 51.3608C24.4869 51.3566 24.4957 51.3566 24.5089 51.3523C25.1067 50.0691 25.5599 48.728 25.8606 47.352C25.4921 47.8673 25.1803 48.3481 24.8604 48.7406C24.4968 49.2334 24.0395 49.6557 23.5125 49.985C23.2366 50.1681 22.9268 50.2986 22.5999 50.3695C22.3977 50.4155 22.3057 50.4113 22.2925 50.3738C22.2793 50.3362 22.3366 50.2526 22.4947 50.1455C22.755 49.9871 23.0041 49.8123 23.2404 49.6222C23.6752 49.2681 24.055 48.856 24.3685 48.3984C24.7243 47.9218 25.0884 47.289 25.6149 46.5884C24.6408 46.2038 23.6251 45.9249 22.5866 45.7569C22.455 46.0101 22.3278 46.2632 22.1961 46.5163Z" fill="black"/>
<path d="M25.0928 39.8788C24.6303 41.6445 23.9316 43.3452 23.0143 44.9382C24.0917 45.131 25.1439 45.4366 26.1522 45.8496C26.3102 44.9086 26.4041 43.9929 26.4595 43.1615C26.5338 41.9334 26.3676 40.7732 26.6264 39.7946C26.1414 39.8194 25.6193 39.8406 25.0928 39.8788Z" fill="black"/>
</svg>
